<?xml version="1.0" encoding="UTF-8" standalone="no"?>
<!DOCTYPE svg PUBLIC "-//W3C//DTD SVG 1.1//EN" "http://www.w3.org/Graphics/SVG/1.1/DTD/svg11.dtd">
<svg version="1.1" xmlns="http://www.w3.org/2000/svg" xmlns:xlink="http://www.w3.org/1999/xlink" preserveAspectRatio="xMidYMid meet" viewBox="0 0 2100 985" width="2100" height="985"><defs><path d="M2099.9 391.18C2099.9 391.18 2099.9 391.18 2099.9 391.18C2099.9 749.32 2099.9 948.29 2099.9 988.08C2099.9 988.08 2099.9 988.08 2099.9 988.08C839.97 988.08 140.01 988.08 0.02 988.08C0.02 988.08 0.02 988.08 0.02 988.08C0.02 629.94 0.02 430.97 0.02 391.18C0.02 391.18 0.02 391.18 0.02 391.18C1259.95 391.18 1959.91 391.18 2099.9 391.18Z" id="b1TCi4CYMd"></path><path d="M0.02 408.68L1734.88 407.48L764.02 423.67L2099.9 426.01L2099.9 184.28L0.02 184.28L0.02 408.68Z" id="a12EMvPj7w"></path><path d="M2070.74 300.53C2064.98 292.17 2054.78 289.34 2042.9 288.74C2065.7 231.47 1971.03 237.21 1978.95 282.89C1957.23 269.58 1913.19 278.86 1892.91 296.6C1867.47 287.93 1837.95 310.62 1834.84 327.86C1829.92 313.34 1800.88 313.14 1792.72 322.82C1783.6 319.89 1771.84 335.82 1777.84 345.4C1744.6 339.25 1689.28 344.29 1678.96 356.19C1707.03 356.19 1847.34 356.19 2099.9 356.19L2099.9 287.83C2083.5 289.24 2073.78 293.48 2070.74 300.53Z" id="bh8I0GOvk"></path><path d="M1792 351.35C1777.36 344.8 1786.96 325.74 1805.32 327.46C1803.16 330.68 1803.16 334.31 1805.32 338.14C1814.08 333.91 1828.96 337.54 1832.68 342.08C1840.11 323.22 1868.43 308.2 1890.27 313.24C1898.79 295.8 1918.11 287.73 1940.31 290.35C1919.67 291.96 1907.67 299.93 1900.71 315.76C1921.35 299.02 1982.43 302.75 1998.39 320.6C2012.42 317.37 2025.02 321.61 2031.5 328.46C2026.22 318.99 2017.22 314.15 2005.35 312.84C2001.99 303.56 1997.19 294.49 1984.95 286.42C1982.91 277.04 1992.15 254.76 2008.23 256.67C1999.47 258.79 1996.47 279.87 1999.47 287.93C2013.14 285.61 2023.34 292.57 2025.02 300.13C2049.98 298.22 2061.02 314.55 2061.14 326.45C2067.14 322.92 2078.06 324.43 2085.5 330.38C2077.94 327.86 2071.22 329.67 2069.18 332.3C2080.82 329.98 2091.26 331.49 2099.78 339.66C2099.78 340.77 2099.78 346.31 2099.78 356.29L1678.96 356.29C1721.36 348.76 1759.04 347.12 1792 351.35Z" id="k2pjmC4l46"></path><path d="M38.54 301.14C46.1 290.05 59.54 286.42 75.38 285.71C45.26 210.09 170.17 217.76 159.85 277.95C188.53 260.41 246.61 272.5 273.36 296C306.96 284.6 346.08 314.45 350.04 337.24C356.52 318.18 394.92 317.78 405.6 330.68C417.6 326.85 433.08 347.82 425.16 360.53C468.95 352.36 542.03 359.01 555.59 374.74C518.55 374.74 333.36 374.74 0.02 374.74L0.02 284.4C21.62 286.28 34.46 291.86 38.54 301.14Z" id="c3U93yPzSR"></path><path d="M555.71 374.64C522.11 361.54 471.83 359.82 406.44 368.19C425.76 359.52 413.16 334.31 388.8 336.53C391.56 340.87 391.56 345.6 388.8 350.75C377.28 345.1 357.6 350.04 352.68 355.89C342.84 330.98 305.52 311.22 276.72 317.88C265.44 294.89 240.01 284.1 210.73 287.53C237.85 289.65 253.69 300.23 262.92 321.1C235.69 299.02 155.17 303.96 134.05 327.56C115.57 323.32 98.89 328.87 90.37 337.84C97.21 325.44 109.21 318.99 124.81 317.27C129.13 304.97 135.49 293.07 151.69 282.49C154.45 269.98 142.21 240.64 120.97 243.16C132.49 245.99 136.45 273.71 132.49 284.4C114.49 281.28 101.05 290.55 98.77 300.53C65.9 298.01 51.38 319.59 51.14 335.32C43.1 330.58 28.82 332.7 18.86 340.46C28.82 337.14 37.7 339.45 40.34 343.08C24.98 340.06 11.18 342.08 -0.1 352.76C-0.1 354.23 -0.1 361.56 -0.1 374.74L555.71 374.74C555.71 374.69 555.71 374.66 555.71 374.64Z" id="aixfeM8HK"></path><path d="M1698.64 234.79C1691.8 230.66 1677.88 233.48 1671.52 239.13C1656.17 227.13 1630.61 247.2 1635.17 254.56C1624.61 252.64 1607.21 254.15 1603.97 257.99C1621.68 257.99 1763.37 257.99 1781.08 257.99C1775.44 248.31 1756.96 240.44 1735.24 243.26C1735.24 243.26 1735.24 243.26 1735.24 243.26C1708.76 225.38 1696.56 222.56 1698.64 234.79Z" id="aX0Ac6GqI"></path><path d="M1638.29 256.07C1641.65 249.11 1649.09 243.26 1657.85 245.18C1652.69 246.29 1650.29 249.21 1649.09 252.94C1657.25 246.59 1665.64 246.29 1674.28 249.21C1677.52 239.03 1687.48 236.61 1699.72 237.01C1704.04 230.06 1716.64 226.63 1721.8 231.06C1721.92 229.65 1719.52 228.24 1717.36 227.74C1731.64 225.32 1736.44 239.03 1732.6 246.29C1753.84 246.09 1772.68 247.8 1780.84 257.88C1722.04 257.88 1663 257.88 1603.97 257.88C1603.97 257.88 1603.97 257.88 1603.97 257.88C1619.09 255.8 1630.53 255.2 1638.29 256.07Z" id="bfqcvypig"></path><path d="M288.36 363.65C275.4 355.79 249.13 361.23 237.01 371.82C208.09 349.23 159.61 387.15 168.37 400.96C148.57 397.23 115.57 400.25 109.45 407.41C142.94 407.41 410.86 407.41 444.35 407.41C433.56 389.16 398.76 374.24 357.6 379.68C357.6 379.68 357.6 379.68 357.6 379.68C307.44 345.87 284.36 340.53 288.36 363.65Z" id="c1U6j8Q9Qp"></path><path d="M174.37 403.88C180.61 390.67 194.89 379.68 211.45 383.31C201.61 385.33 197.17 390.98 194.77 397.93C210.13 385.94 226.21 385.33 242.53 390.78C248.53 371.52 267.36 367.08 290.64 367.79C298.92 354.48 322.68 348.02 332.52 356.6C332.76 353.97 328.32 351.15 324 350.34C351.12 345.71 360 371.72 352.92 385.53C393.24 385.03 428.64 388.36 444.23 407.41C332.64 407.41 221.05 407.41 109.45 407.41C109.45 407.41 109.45 407.41 109.45 407.41C138.09 403.51 159.73 402.34 174.37 403.88Z" id="b5FChoQhmI"></path><path d="M700.9 240.04C692.62 235 675.94 238.53 668.26 245.18C649.78 230.76 619.06 254.96 624.58 263.73C611.99 261.41 590.99 263.33 587.03 267.87C608.34 267.87 778.82 267.87 800.13 267.87C793.29 256.17 771.1 246.79 744.94 250.22C744.94 250.22 744.94 250.22 744.94 250.22C713.02 228.71 698.34 225.32 700.9 240.04Z" id="a31PjtO9k3"></path><path d="M631.4 265.22C635.36 256.85 644.48 249.79 654.92 252.21C648.68 253.53 645.8 257.05 644.24 261.49C654.08 253.83 664.28 253.53 674.6 256.95C678.44 244.75 690.43 241.83 705.19 242.33C710.47 233.86 725.59 229.73 731.83 235.17C731.95 233.56 729.19 231.75 726.43 231.24C743.59 228.32 749.35 244.85 744.79 253.63C770.47 253.32 793.03 255.44 802.87 267.54C732.07 267.44 661.04 267.44 590 267.44C590 267.44 590 267.44 590 267.44C608.24 264.95 622.04 264.21 631.4 265.22Z" id="d1ZCkTLF1o"></path><path d="M1290.79 435.54C1282.03 430.2 1264.15 433.93 1255.99 441.09C1236.31 425.76 1203.43 451.47 1209.31 460.85C1195.87 458.33 1173.43 460.35 1169.23 465.19C1191.98 465.19 1373.99 465.19 1396.74 465.19C1389.42 452.78 1365.78 442.7 1337.82 446.43C1337.82 446.43 1337.82 446.43 1337.82 446.43C1303.75 423.51 1288.07 419.88 1290.79 435.54Z" id="gP4d7Ymt3"></path><path d="M1213.51 462.77C1217.83 453.79 1227.43 446.33 1238.71 448.85C1231.99 450.26 1229.11 453.99 1227.43 458.83C1237.87 450.67 1248.79 450.26 1259.83 453.99C1263.91 440.89 1276.75 437.86 1292.59 438.37C1298.23 429.39 1314.3 424.96 1321.02 430.7C1321.14 428.89 1318.14 427.07 1315.26 426.47C1333.62 423.24 1339.74 440.99 1334.82 450.37C1362.18 450.06 1386.18 452.28 1396.86 465.19C1320.9 465.19 1245.07 465.19 1169.35 465.19C1169.35 465.19 1169.35 465.19 1169.35 465.19C1188.79 462.5 1203.51 461.69 1213.51 462.77Z" id="a1O1rugpDW"></path><path d="M1433.94 448.85C1421.34 441.19 1395.9 446.53 1384.14 456.72C1356.06 434.74 1309.15 471.54 1317.54 485.05C1298.35 481.42 1266.31 484.34 1260.31 491.3C1292.81 491.3 1552.86 491.3 1585.37 491.3C1574.81 473.56 1541.09 459.14 1501.13 464.38C1501.13 464.38 1501.13 464.38 1501.13 464.38C1452.5 431.58 1430.1 426.4 1433.94 448.85Z" id="d9zl1iwCJ"></path><path d="M1323.3 487.87C1329.42 475.07 1343.22 464.38 1359.3 467.91C1349.82 469.82 1345.5 475.27 1343.1 482.13C1358.1 470.43 1373.58 469.93 1389.54 475.17C1395.42 456.52 1413.66 452.18 1436.34 452.78C1444.38 439.98 1467.42 433.63 1476.9 441.9C1477.14 439.37 1472.82 436.65 1468.62 435.85C1494.89 431.41 1503.65 456.62 1496.69 470.03C1535.81 469.52 1570.25 472.75 1585.37 491.3C1476.9 491.3 1368.54 491.3 1260.19 491.3C1260.19 491.3 1260.19 491.3 1260.19 491.3C1288.03 487.47 1309.07 486.33 1323.3 487.87Z" id="c3IPa7ZjoY"></path><path d="M306.72 487.57C300.6 483.84 288.36 486.46 282.72 491.4C269.16 480.82 246.61 498.56 250.69 505.01C241.45 503.3 225.97 504.71 223.09 508.04C238.73 508.04 363.91 508.04 379.56 508.04C374.52 499.47 358.32 492.51 339 495.03C339 495.03 339 495.03 339 495.03C315.56 479.24 304.8 476.75 306.72 487.57Z" id="b2Kuofwhe"></path><path d="M253.45 506.32C256.45 500.17 263.04 495.03 270.72 496.75C266.16 497.65 264.12 500.27 262.92 503.6C270.12 497.96 277.68 497.75 285.24 500.27C288 491.3 296.88 489.18 307.8 489.49C311.64 483.34 322.8 480.31 327.36 484.24C327.48 483.03 325.44 481.72 323.4 481.32C336 479.2 340.2 491.3 336.84 497.75C355.68 497.55 372.24 499.06 379.56 507.94C327.36 507.94 275.16 507.94 223.09 507.94C223.09 507.94 223.09 507.94 223.09 507.94C236.45 506.12 246.57 505.59 253.45 506.32Z" id="kwqFW4TD3"></path><path d="M2099.9 731.78C2099.9 731.78 2099.9 731.78 2099.9 731.78C2099.9 885.56 2099.9 970.99 2099.9 988.08C2099.9 988.08 2099.9 988.08 2099.9 988.08C839.97 988.08 140.01 988.08 0.02 988.08C0.02 988.08 0.02 988.08 0.02 988.08C0.02 834.3 0.02 748.86 0.02 731.78C0.02 731.78 0.02 731.78 0.02 731.78C1259.95 731.78 1959.91 731.78 2099.9 731.78Z" id="h14pWK63Q6"></path><path d="M2099.9 578.92C2099.9 578.92 2099.9 578.92 2099.9 578.92C2099.9 670.63 2099.9 721.59 2099.9 731.78C2099.9 731.78 2099.9 731.78 2099.9 731.78C839.97 731.78 140.01 731.78 0.02 731.78C0.02 731.78 0.02 731.78 0.02 731.78C0.02 640.06 0.02 589.11 0.02 578.92C0.02 578.92 0.02 578.92 0.02 578.92C1259.95 578.92 1959.91 578.92 2099.9 578.92Z" id="dADRiy2Ye"></path><path d="M1176.07 702.03C1191.43 703.04 1200.79 719.37 1216.03 721.69C1227.79 723.51 1238.59 713.83 1250.47 713.32C1264.63 712.62 1278.55 718.77 1292.71 717.96C1312.74 716.85 1331.58 707.58 1351.62 707.68C1453.98 708.18 1534.61 712.01 1636.97 710C1650.65 709.8 1672.72 704.35 1686.04 702.23C1697.08 700.52 1713.76 709.59 1724.92 709.49C1739.08 709.29 1747.96 704.55 1762.12 704.55C1771.72 704.55 1783.12 708.28 1792.72 709.49C1801.24 710.6 1809.76 705.96 1818.28 706.67C1825.72 707.27 1831.96 713.53 1839.39 713.22C1850.31 712.82 1859.67 705.46 1870.47 704.85C1891.23 703.64 1912.23 710.8 1932.75 707.68C1949.55 705.06 1961.43 701.53 1977.99 698.4C1988.19 696.39 1998.63 702.84 2009.07 703.04C2018.06 703.14 2026.94 697.7 2035.7 699.31C2050.46 701.93 2062.46 701.73 2077.1 704.96C2084.42 706.57 2092.22 703.75 2099.78 703.04C2099.78 704.96 2099.78 714.53 2099.78 731.78L0.02 731.78C0.02 721.13 0.02 715.21 0.02 714.03C26.54 714.03 52.94 715.44 79.34 714.13C105.37 712.92 131.05 705.66 157.09 706.67C179.17 707.48 199.57 717.86 221.53 719.68C235.57 720.89 249.61 716.75 263.76 715.95C283.8 714.84 303.84 715.34 323.76 714.03C343.8 712.82 363.72 707.48 383.76 708.48C414.48 710 444.11 720.68 474.83 721.49C509.75 722.5 544.31 714.03 579.23 714.03C593.63 714.03 607.07 721.19 621.46 721.49C635.02 721.79 647.86 715.84 661.42 715.84C678.58 715.84 695.38 721.89 712.54 721.49C724.78 721.29 735.94 714.33 748.06 714.03C762.34 713.73 776.02 719.17 790.29 719.68C797.85 719.88 804.93 715.54 812.49 715.95C826.41 716.75 839.61 723.91 853.65 723.21C867.33 722.6 878.97 713.73 892.53 712.11C905.73 710.6 919.29 712.62 932.49 714.03C943.77 715.24 954.45 719.68 965.84 719.68C991.16 719.68 1016.12 714.63 1041.44 714.03C1072.04 713.53 1102.52 718.77 1132.76 716.05C1132.76 716.05 1132.76 716.05 1132.76 716.05C1151.31 706.03 1165.75 701.36 1176.07 702.03Z" id="a2IbkoxDGc"></path><path d="M1659.77 550.99L1690.6 537.48L1704.64 528L1727.08 527.4L1753 519.73L1776.76 501.59L1795.72 476.28L1837 475.67L1884.03 498.06L1912.71 493.32L1958.91 508.04L1986.27 546.86L2002.35 550.99L2019.26 578.92L1638.05 578.92L1659.77 550.99Z" id="etBeysCbw"></path><path d="M1659.77 550.99L1690.6 537.48L1704.64 528L1727.08 527.4L1753 519.73L1776.76 501.59L1795.72 476.28L1837 475.67L1884.03 498.06L1912.71 493.32L1958.91 508.04L1986.27 546.86L2002.35 550.99L2008.59 561.17L2001.03 567.53L1967.07 564L1945.35 568.94L1913.07 559.56L1879.83 557.44L1850.31 566.01L1819.48 561.28L1788.76 567.83L1748.8 558.96L1725.64 567.22L1698.28 569.24L1685.44 566.32L1673.08 571.06L1648.97 564.91L1659.77 550.99Z" id="a60s12FgA"></path><path d="M1659.77 550.99L1690.6 537.48L1704.64 528.1L1727.08 527.5L1753 519.84L1776.88 501.59L1795.84 476.28L1837.36 492.21L1838.43 509.95L1827.28 518.83L1848.39 519.33L1878.87 505.82L1896.15 503.9L1880.55 516L1872.27 530.93L1831.12 545.85L1815.52 536.07L1782.76 544.03L1766.08 552.4L1742.68 547.76L1764.88 537.98L1742.68 535.16L1719.88 541.21L1711 533.25L1682.08 553.81L1664.92 557.55L1658.21 561.78L1651.25 561.98L1659.77 550.99ZM1926.15 543.13L1920.63 547.36L1929.51 545.04L1939.47 539.8L1926.15 543.13ZM1903.47 522.56L1895.67 531.43L1912.35 530.02L1917.87 523.97L1923.99 522.56L1925.07 516L1903.47 522.56Z" id="bsCbTaylJ"></path><path d="M1434.66 565.41L1456.26 554.32L1478.22 541.82L1542.77 539.9L1556.69 537.58L1579.01 544.74L1592.21 563.39L1600.01 565.41L1608.05 578.92L1424.22 578.92L1434.66 565.41Z" id="f7UsEuUI7C"></path><path d="M1434.66 565.41L1456.26 554.32L1478.22 541.82L1542.77 539.9L1556.69 537.58L1579.01 544.74L1592.21 563.39L1600.01 565.41L1602.89 570.35L1599.29 573.38L1582.97 571.66L1572.41 574.08L1556.81 569.54L1540.73 568.54L1526.57 572.67L1511.69 570.35L1496.81 573.58L1477.62 569.24L1466.46 573.27L1453.26 574.28L1447.02 572.87L1441.02 575.09L1429.38 572.17L1434.66 565.41Z" id="d269NROQfl"></path><path d="M1434.54 565.41L1449.42 558.86L1456.14 554.32L1478.1 541.82L1528.13 540.3L1515.29 549.88L1525.49 550.08L1540.25 543.53L1548.53 542.62L1540.97 548.47L1537.01 555.63L1517.09 562.79L1509.53 558.05L1493.69 561.88L1485.66 565.91L1474.38 563.7L1485.06 558.96L1474.38 557.55L1463.34 560.47L1459.02 556.64L1445.1 566.52L1436.82 568.33L1433.58 570.35L1430.46 570.75L1434.54 565.41ZM1563.17 561.68L1560.53 563.7L1564.85 562.59L1569.65 560.07L1563.17 561.68ZM1552.13 551.7L1548.41 555.93L1556.45 555.23L1559.09 552.3L1561.97 551.6L1562.57 548.57L1552.13 551.7Z" id="f1SC8JsSwJ"></path><path d="M62.9 768.17C82.1 785.32 108.13 786.53 120.61 819.6C117.97 832.2 57.14 835.33 0.02 839.16C0.02 830.82 0.02 789.11 0.02 714.03C27.94 738.09 48.9 756.14 62.9 768.17Z" id="d2vcVpWtqO"></path><path d="M0.02 839.16C0.02 838.14 0.02 829.99 0.02 828.97C39.86 827.06 70.46 836.64 113.17 825.85C113.17 825.85 113.17 825.85 113.17 825.85C68.54 832.7 30.82 837.14 0.02 839.16Z" id="b11E2CBvJh"></path><path d="M62.9 768.17C81.5 784.71 106.33 786.42 119.29 816.27C114.85 819.8 110.41 821.61 105.97 820.5C90.61 808.4 79.58 807.4 68.78 807.19C85.58 810.52 93.73 816.47 94.69 824.94C74.06 826.45 54.02 824.03 35.18 812.54C21.5 814.35 9.02 814.56 0.14 809.51C0.14 803.7 0.14 757.15 0.14 751.34C15.38 755.17 16.22 770.29 27.62 777.05C37.7 785.52 40.46 798.42 57.62 802.46C43.82 797.11 42.38 786.22 34.82 778.16C23.18 768.38 19.82 754.16 0.02 748.61C0.02 746.31 0.02 734.78 0.02 714.03C27.94 738.09 48.9 756.14 62.9 768.17Z" id="aWOyVYwN7"></path><path d="M72.62 796.61C88.33 770.19 118.69 760.01 158.17 759.71C235.45 750.53 282.48 766.66 309.24 799.83C367.2 807.4 371.52 821.71 369.84 836.74C360.48 845.01 334.44 847.53 282 840.97C238.57 860.23 158.29 863.05 48.14 852.57C48.14 852.57 48.14 852.57 48.14 852.57C46.62 821.65 54.78 802.99 72.62 796.61Z" id="a2Ha6q3JCk"></path><path d="M60.26 802.86C53.9 814.66 54.14 825.34 62.54 834.72C82.58 842.69 107.65 841.38 134.41 836.94C169.33 853.58 201.25 851.36 232.45 844.9C229.69 842.28 225.61 840.06 220.21 837.95C242.05 840.17 261.37 836.23 279.36 829.07C281.28 824.03 284.16 819.6 289.32 816.47C283.8 840.57 324.72 839.16 356.52 842.69C342.36 845.91 318.6 845.71 281.88 841.07C238.57 860.23 158.29 863.05 48.14 852.57C48.14 852.57 48.14 852.57 48.14 852.57C45.82 826.69 49.86 810.12 60.26 802.86Z" id="ahskM7irM"></path><path d="M158.17 759.71C235.45 750.53 282.48 766.66 309.24 799.83C345.84 804.57 361.08 812.03 366.84 820.71C339.84 832.81 316.32 828.07 293.64 818.99C293.76 811.73 297.6 805.88 305.88 801.75C292.32 803.77 280.44 808.71 270.6 817.18C260.53 825.44 245.29 829.18 226.69 829.98C216.37 825.85 205.93 825.14 195.25 826.45C188.53 819.9 180.97 815.66 171.61 815.66C180.73 817.78 186.37 822.22 189.97 828.07C198.01 828.67 204.37 830.28 208.33 833.21C208.21 835.53 204.49 837.14 195.61 837.95C178.57 836.54 162.01 834.12 149.77 822.72C116.77 826.35 87.73 827.26 77.78 814.05C82.1 802.46 92.29 798.02 103.69 794.89C111.01 784.31 123.61 778.76 138.37 775.33C123.85 777.25 110.53 781.58 100.45 792.27C93.61 792.78 86.9 793.68 80.42 796.41C85.1 781.99 97.93 772.61 114.37 765.55C114.37 765.55 114.37 765.55 114.37 765.55C132.77 761.72 147.37 759.77 158.17 759.71ZM222.61 784.11C236.17 778.16 254.53 776.34 279.6 780.37C268.68 774.63 255.25 772.61 237.37 777.05C213.25 767.97 190.93 768.58 169.57 772.91C169.57 772.91 169.57 772.91 169.57 772.91C194.61 773.85 212.29 777.59 222.61 784.11Z" id="buasBjDFo"></path><path d="M398.76 838.75C401.28 835.53 404.4 833.91 408.72 835.33C412.32 836.33 414.96 838.15 415.68 841.17C416.28 842.08 417.36 843.69 416.52 845.61C413.04 848.13 400.56 847.32 394.44 845.51C394.44 845.51 394.44 845.51 394.44 845.51C395.64 842.08 397.08 839.83 398.76 838.75Z" id="a3fBskZgo2"></path><path d="M397.08 843.8C402.12 846.01 408.12 846.42 414.48 846.42C409.44 847.83 399.72 847.02 394.44 845.41C395.04 842.79 396.24 840.57 398.28 839.06C398.28 839.06 398.28 839.06 398.28 839.06C397.32 841.34 396.92 842.92 397.08 843.8Z" id="baPyV7SMv"></path><path d="M404.4 834.92C405.72 834.72 407.16 834.82 408.72 835.33C412.32 836.33 414.96 838.15 415.68 841.17C416.16 841.88 416.88 843.09 416.76 844.4C415.8 845.11 414.12 845.31 411.24 844.7C405.48 845.31 400.92 844.8 399.36 841.38C399.6 838.55 401.16 836.64 404.4 834.92C404.4 834.92 404.4 834.92 404.4 834.92C404.4 834.92 404.4 834.92 404.4 834.92Z" id="h8r3UNeLnb"></path><path d="M282.6 857.21C285.12 853.98 288.36 852.37 292.68 853.78C296.28 854.79 298.92 856.6 299.64 859.63C300.24 860.53 301.32 862.15 300.48 864.06C296.88 866.48 284.52 865.68 278.28 863.86C278.28 863.86 278.28 863.86 278.28 863.86C279.56 860.43 281 858.21 282.6 857.21Z" id="oVITIgLl"></path><path d="M280.92 862.15C285.96 864.36 291.96 864.87 298.32 864.77C293.28 866.18 283.56 865.37 278.28 863.76C278.88 861.24 280.08 858.92 282.12 857.41C282.12 857.41 282.12 857.41 282.12 857.41C281.16 859.69 280.76 861.27 280.92 862.15Z" id="a275oHn4QZ"></path><path d="M288.36 853.27C289.68 853.07 291.12 853.17 292.68 853.68C296.28 854.68 298.92 856.5 299.64 859.52C300.12 860.23 300.84 861.34 300.72 862.75C299.76 863.46 298.08 863.66 295.08 863.05C289.32 863.66 284.88 863.15 283.32 859.73C283.56 856.9 285.12 854.99 288.36 853.27C288.36 853.27 288.36 853.27 288.36 853.27C288.36 853.27 288.36 853.27 288.36 853.27Z" id="a3EfatJP4M"></path><path d="M304.56 868.8C306.6 866.28 309.12 864.97 312.48 866.08C315.36 866.89 317.4 868.3 318 870.72C318.48 871.42 319.32 872.73 318.72 874.25C315.84 876.16 306 875.56 301.2 874.14C301.2 874.14 301.2 874.14 301.2 874.14C302.16 871.39 303.28 869.61 304.56 868.8Z" id="a3jqNboW7"></path><path d="M303.24 872.73C307.2 874.45 312 874.85 316.92 874.85C312.96 875.96 305.28 875.35 301.08 874.04C301.56 872.03 302.52 870.21 304.2 869C304.2 869 304.2 869 304.2 869C303.48 870.82 303.16 872.06 303.24 872.73Z" id="aQdKKAvt3"></path><path d="M309 865.78C309.96 865.57 311.16 865.68 312.36 866.08C315.24 866.89 317.28 868.3 317.88 870.72C318.24 871.32 318.84 872.13 318.72 873.24C318 873.74 316.56 873.94 314.28 873.44C309.84 873.94 306.12 873.54 304.92 870.82C305.16 868.6 306.48 867.09 309 865.78C309 865.78 309 865.78 309 865.78C309 865.78 309 865.78 309 865.78Z" id="aoftQa69m"></path><path d="M33.14 856.9C42.74 844.7 54.74 838.55 70.94 843.8C84.74 847.73 94.33 854.38 97.09 865.78C106.81 867.19 114.01 871.72 117.13 881.2C103.57 890.78 39.98 889.17 17.06 882.11C17.06 882.11 17.06 882.11 17.06 882.11C21.78 869.07 27.14 860.67 33.14 856.9Z" id="a20jMpVYXg"></path><path d="M31.46 858.01C26.9 865.17 25.94 870.92 27.02 875.96C48.74 885.54 75.38 886.34 102.61 885.84C78.38 889.87 35.18 887.66 17.06 882.11C17.06 882.11 17.06 882.11 17.06 882.11C21.38 869.81 26.18 861.78 31.46 858.01Z" id="a3HhVbQIlJ"></path><path d="M70.94 843.8C84.74 847.73 94.33 854.38 97.09 865.78C100.09 866.78 102.49 867.89 104.29 869.3C102.01 872.13 97.21 872.03 91.09 870.51C87.02 864.77 81.26 861.14 73.34 860.33C80.42 861.94 84.98 865.57 87.49 870.62C90.37 872.03 91.93 874.25 93.13 876.67C91.57 874.85 89.17 873.34 84.74 872.83C85.1 875.56 83.9 877.77 80.42 879.19C58.82 881.51 41.66 879.69 35.78 866.78C37.94 862.35 42.38 860.03 50.9 861.64C47.3 859.63 43.34 858.52 38.9 858.92C40.94 852.87 44.54 847.12 54.62 842.38C54.62 842.38 54.62 842.38 54.62 842.38C61.5 842.05 66.94 842.52 70.94 843.8Z" id="aCo6VkKu6"></path><path d="M153.25 871.93C157.33 866.78 162.37 864.16 169.21 866.38C174.97 867.99 179.17 870.82 180.25 875.66C181.21 877.17 182.89 879.69 181.69 882.72C175.93 886.85 156.13 885.64 146.41 882.61C146.41 882.61 146.41 882.61 146.41 882.61C148.41 877.1 150.69 873.54 153.25 871.93Z" id="b6EZMBgjG"></path><path d="M150.61 879.99C158.65 883.52 168.25 884.23 178.21 884.23C170.29 886.45 154.69 885.13 146.41 882.61C147.25 878.48 149.17 874.85 152.53 872.43C152.53 872.43 152.53 872.43 152.53 872.43C151.01 876.06 150.37 878.58 150.61 879.99Z" id="at7Z8xNc6"></path><path d="M162.25 865.88C164.29 865.47 166.57 865.68 169.09 866.48C174.85 868.1 179.05 870.92 180.13 875.76C180.85 876.97 182.05 878.68 181.93 880.9C180.49 882.01 177.61 882.41 173.05 881.4C163.93 882.41 156.61 881.61 154.21 876.16C154.57 871.62 157.09 868.6 162.25 865.88C162.25 865.88 162.25 865.88 162.25 865.88C162.25 865.88 162.25 865.88 162.25 865.88Z" id="asbKaywmK"></path><path d="M447.95 806.39C457.55 794.19 469.43 788.04 485.75 793.28C499.55 797.11 509.15 803.87 511.91 815.16C521.63 816.57 528.83 821.11 531.95 830.59C518.51 840.37 454.91 838.65 431.88 831.6C431.88 831.6 431.88 831.6 431.88 831.6C436.6 818.55 441.95 810.15 447.95 806.39Z" id="c12mbkDoip"></path><path d="M446.27 807.5C441.71 814.66 440.87 820.4 441.83 825.44C463.55 834.92 490.19 835.83 517.43 835.33C493.31 839.36 449.99 837.14 431.88 831.6C431.88 831.6 431.88 831.6 431.88 831.6C436.2 819.36 440.99 811.33 446.27 807.5Z" id="ajKJpm8lt"></path><path d="M485.75 793.28C499.55 797.11 509.15 803.87 511.91 815.16C514.91 816.17 517.31 817.28 519.11 818.69C516.83 821.51 512.03 821.41 505.91 819.9C501.83 814.15 496.07 810.52 488.15 809.72C495.11 811.33 499.67 814.96 502.31 820C505.31 821.41 506.75 823.63 507.95 826.05C506.39 824.23 503.99 822.72 499.55 822.22C499.91 824.94 498.71 827.16 495.23 828.47C473.63 830.89 456.47 828.97 450.71 816.07C452.87 811.63 457.31 809.31 465.83 810.93C462.23 808.91 458.27 807.8 453.95 808.2C455.75 802.36 459.35 796.61 469.43 791.87C469.43 791.87 469.43 791.87 469.43 791.87C476.31 791.53 481.75 792 485.75 793.28Z" id="entjdLsnx"></path><path d="M516.71 830.99C520.79 825.85 525.83 823.23 532.67 825.44C538.55 827.06 542.63 829.88 543.71 834.72C544.55 836.13 546.35 838.75 545.15 841.78C539.39 845.81 519.59 844.6 509.87 841.58C509.87 841.58 509.87 841.58 509.87 841.58C511.87 836.07 514.15 832.54 516.71 830.99Z" id="a1gnDuoWbq"></path><path d="M514.07 838.96C522.11 842.48 531.71 843.19 541.67 843.19C533.75 845.41 518.15 844.1 509.87 841.58C510.83 837.34 512.63 833.81 515.99 831.39C515.99 831.39 515.99 831.39 515.99 831.39C514.47 835.02 513.83 837.54 514.07 838.96Z" id="ae2iu2WqX"></path><path d="M525.83 824.84C527.87 824.44 530.15 824.64 532.67 825.44C538.55 827.06 542.63 829.88 543.71 834.72C544.43 835.83 545.63 837.64 545.51 839.86C544.07 840.87 541.19 841.38 536.63 840.37C527.51 841.38 520.31 840.57 517.79 835.12C518.15 830.59 520.67 827.46 525.83 824.84C525.83 824.84 525.83 824.84 525.83 824.84C525.83 824.84 525.83 824.84 525.83 824.84Z" id="bhU0TBFgK"></path><path d="M583.07 820C585.59 816.77 588.83 815.16 593.15 816.47C596.75 817.58 599.39 819.29 600.11 822.32C600.71 823.23 601.79 824.84 600.95 826.76C597.23 829.28 584.87 828.47 578.75 826.65C578.75 826.65 578.75 826.65 578.75 826.65C580.03 823.23 581.47 821.01 583.07 820Z" id="a77isGQaZ"></path><path d="M581.39 824.94C586.43 827.16 592.43 827.56 598.79 827.56C593.75 828.97 584.03 828.17 578.75 826.55C579.35 823.93 580.43 821.71 582.59 820.2C582.59 820.2 582.59 820.2 582.59 820.2C581.63 822.49 581.23 824.07 581.39 824.94Z" id="cwex01GoR"></path><path d="M588.71 816.07C590.03 815.87 591.47 815.97 593.03 816.37C596.63 817.48 599.27 819.19 599.99 822.22C600.47 822.92 601.19 824.13 601.07 825.44C600.11 826.15 598.43 826.45 595.43 825.75C589.67 826.35 585.11 825.85 583.67 822.42C583.91 819.7 585.47 817.78 588.71 816.07C588.71 816.07 588.71 816.07 588.71 816.07C588.71 816.07 588.71 816.07 588.71 816.07Z" id="a7B7hM6XAD"></path><path d="M617.02 831.8C619.06 829.28 621.58 827.97 624.94 829.07C627.82 829.88 629.86 831.29 630.34 833.61C630.82 834.32 631.66 835.63 631.06 837.14C628.3 839.26 618.46 838.65 613.66 837.14C613.66 837.14 613.66 837.14 613.66 837.14C614.62 834.38 615.74 832.6 617.02 831.8Z" id="aSBaHX78k"></path><path d="M615.7 835.83C619.66 837.54 624.46 837.95 629.38 837.95C625.42 839.06 617.62 838.45 613.54 837.14C614.14 835.02 614.98 833.31 616.66 832.1C616.66 832.1 616.66 832.1 616.66 832.1C615.86 833.91 615.54 835.16 615.7 835.83Z" id="dXRLkHK1D"></path><path d="M621.46 828.77C622.54 828.57 623.62 828.67 624.94 829.07C627.82 829.88 629.86 831.29 630.34 833.61C630.7 834.22 631.3 835.12 631.3 836.13C630.58 836.64 629.14 836.94 626.86 836.33C622.3 836.84 618.7 836.44 617.5 833.71C617.62 831.7 618.94 830.18 621.46 828.77C621.46 828.77 621.46 828.77 621.46 828.77C621.46 828.77 621.46 828.77 621.46 828.77Z" id="d1bYallmRx"></path><path d="M1795.24 889.17C1814.68 872.23 1822.72 882.31 1811.56 904.8C1821.64 899.15 1827.52 902.58 1827.64 916.69C1839.63 896.33 1845.15 902.07 1844.79 919.52C1872.87 897.54 1897.71 907.82 1889.55 945.13C1903.47 951.38 1899.15 959.24 1875.99 967.51C1879.95 967.11 1881.87 967.81 1880.07 970.33C1905.39 961.56 1936.59 961.16 1924.59 988.18C1889.79 988.18 1611.41 988.18 1576.61 988.18C1567.25 965.39 1582.73 948.86 1619.69 954.2C1602.53 935.85 1607.93 927.58 1635.77 933.94C1615.85 895.82 1628.81 885.94 1666.36 910.75C1663.96 887.76 1685.8 893.1 1692.4 907.52C1693.72 891.49 1700.56 888.06 1713.52 900.96C1703.56 863.66 1715.68 836.44 1755.76 865.88C1755.76 865.88 1755.76 865.88 1755.76 865.88C1783.28 861.98 1796.44 869.74 1795.24 889.17Z" id="b5WF28ia7E"></path><path d="M1795.24 889.17C1814.68 872.23 1822.72 882.31 1811.56 904.8C1821.64 899.15 1827.52 902.58 1827.64 916.69C1839.63 896.33 1845.15 902.07 1844.79 919.52C1872.87 897.54 1897.71 907.82 1889.55 945.13C1903.47 951.38 1899.15 959.24 1875.99 967.51C1879.95 967.11 1881.87 967.81 1880.07 970.33C1905.39 961.56 1936.59 961.16 1924.59 988.18C1890.46 988.18 1617.46 988.18 1583.33 988.18C1582.37 971.24 1598.21 960.55 1629.05 964.99C1612.01 946.64 1617.29 938.37 1645.13 944.72C1625.21 906.61 1638.17 896.73 1675.72 921.53C1673.32 898.65 1695.16 903.89 1701.76 918.31C1703.08 902.28 1709.92 898.95 1722.88 911.75C1712.68 874.45 1724.68 847.32 1764.88 876.77C1770.76 868.6 1779.04 863.36 1789 860.43C1789 860.43 1789 860.43 1789 860.43C1793.72 870.92 1795.8 880.5 1795.24 889.17Z" id="a1SngIZYcM"></path><path d="M2099.9 826.55C2099.9 837.32 2099.9 891.16 2099.9 988.08C1925.17 988.08 1828.09 988.08 1808.68 988.08C1814.2 970.84 1836.04 961.26 1872.51 966.5C1848.15 940.29 1855.71 928.49 1895.43 937.57C1866.99 883.12 1885.47 869.1 1939.11 904.49C1935.75 871.83 1966.95 879.39 1976.31 899.96C1978.11 877.07 1987.95 872.23 2006.43 890.58C1992.03 837.44 2009.19 798.62 2066.3 840.67C2066.3 840.67 2066.3 840.67 2066.3 840.67C2082.94 831.06 2094.14 826.35 2099.9 826.55Z" id="c6LPvJqzZ"></path><path d="M2099.9 988.08C1935.17 988.08 1843.66 988.08 1825.36 988.08C1835.68 978.7 1854.63 974.57 1881.39 978.4C1877.31 973.96 1874.07 969.93 1871.79 966.3C1872.03 966.3 1872.27 966.4 1872.51 966.4C1871.79 965.6 1871.07 964.89 1870.47 964.18C1861.47 948.25 1872.75 942.3 1904.31 949.46C1875.87 895.12 1894.35 881 1947.99 916.49C1944.63 883.82 1975.83 891.39 1985.19 911.96C1986.99 889.17 1996.83 884.33 2015.3 902.58C2000.79 849.44 2017.94 810.62 2075.18 852.67C2084.66 845.61 2092.94 841.48 2099.9 839.66C2099.9 839.66 2099.9 839.66 2099.9 839.66L2099.9 988.08Z" id="aZd1RCl4"></path><path d="M405.24 969.53C424.68 952.59 432.72 962.67 421.68 985.26C429.12 981.12 434.28 981.83 436.56 988.18C420.54 988.18 292.38 988.18 276.36 988.18C276.12 968.62 296.4 974.07 302.64 987.88C303.96 971.85 310.8 968.52 323.76 981.32C313.56 943.92 325.68 916.69 365.76 946.24C365.76 946.24 365.76 946.24 365.76 946.24C393.28 942.34 406.44 950.1 405.24 969.53ZM453.71 988.08C453.06 988.08 449.78 988.08 443.87 988.08C449.31 984.79 452.59 984.79 453.71 988.08ZM272.04 988.08C269.68 988.08 257.89 988.08 236.65 988.08C244.41 978.33 256.21 978.33 272.04 988.08Z" id="b1fpZzjmyp"></path><path d="M405.24 969.53C424.68 952.59 432.72 962.67 421.68 985.26C429.12 981.12 434.28 981.83 436.56 988.18C426.13 988.18 342.71 988.18 332.28 988.18C324 952.99 336.6 928.69 375.24 957.13C380.76 948.86 389.04 943.72 399 940.79C399 940.79 399 940.79 399 940.79C403.72 951.28 405.8 960.86 405.24 969.53ZM453.71 988.08C453.06 988.08 449.78 988.08 443.87 988.08C449.31 984.79 452.59 984.79 453.71 988.08ZM302.04 988.08C301.2 988.08 297 988.08 289.44 988.08C294.8 986.53 299 986.53 302.04 988.08ZM328.56 988.08C327.62 988.08 322.9 988.08 314.4 988.08C319.28 984.52 324 984.52 328.56 988.08Z" id="a1cX0qfMr3"></path><path d="M91.81 945.23C111.25 928.29 119.29 938.37 108.25 960.96C118.33 955.31 124.21 958.74 124.33 972.75C136.33 952.49 141.73 958.13 141.49 975.58C165.97 956.42 187.93 961.76 187.81 988.08C175.29 988.08 112.69 988.08 0.02 988.08C0.02 964.97 0.02 952.13 0.02 949.56C2.9 950.47 6.38 952.99 10.34 956.92C0.26 919.62 12.26 892.39 52.34 921.94C52.34 921.94 52.34 921.94 52.34 921.94C79.86 918.04 93.01 925.8 91.81 945.23Z" id="b2B6qK23LV"></path><path d="M91.93 945.23C111.37 928.29 119.41 938.37 108.37 960.96C118.45 955.31 124.33 958.74 124.45 972.75C136.45 952.49 141.85 958.13 141.61 975.58C166.09 956.42 188.05 961.76 187.93 988.08C175.4 988.08 112.77 988.08 0.02 988.08C0.02 975.01 0.02 967.75 0.02 966.3C2.78 957.63 9.26 957.53 19.7 967.81C9.5 930.51 21.62 903.28 61.7 932.83C67.34 924.56 75.74 919.42 85.58 916.49C85.58 916.49 85.58 916.49 85.58 916.49C90.29 926.98 92.41 936.56 91.93 945.23Z" id="a3V5UiRyNX"></path><path d="M1251.67 874.35C1251.67 889.67 1121.24 902.28 960.21 902.28C799.17 902.28 668.74 889.77 668.74 874.35C668.74 858.92 799.29 846.52 960.21 846.52C960.21 846.52 960.21 846.52 960.21 846.52C1154.51 854.85 1251.67 864.13 1251.67 874.35Z" id="bgDkqS7W"></path><path d="M903.81 510.36L784.06 885.94L762.7 885.94L883.89 505.82L903.81 510.36Z" id="dq0SN1j7j"></path><path d="M871.89 610.48L784.06 885.94L762.7 885.94L851.85 606.35L871.89 610.48Z" id="bc0CgSIi"></path><path d="M920.97 423.34C1047.68 451.88 1158.55 538.49 1197.19 626.31C1154.77 616.76 942.66 569 560.87 483.03C716.46 424.22 836.49 404.32 920.97 423.34Z" id="d1hFq1Z2ks"></path><path d="M920.97 423.34C1022.36 446.13 1107.44 526.99 1133.72 611.99C1099.76 604.35 929.97 566.14 624.34 497.35C754.42 432.82 853.29 408.15 920.97 423.34Z" id="a22HLBvCzf"></path><path d="M920.85 423.34C987.8 438.47 1037.84 511.27 1047.2 592.53C1024.77 587.48 912.62 562.24 710.74 516.81C806.17 444.42 876.21 413.26 920.85 423.34Z" id="aO4TYQ13i"></path><path d="M920.97 423.34C945.57 428.89 952.41 492.01 941.01 568.64C932.75 566.77 891.47 557.46 817.17 540.71C869.89 458.77 904.49 419.65 920.97 423.34Z" id="a5f8i79Yf6"></path><path d="M869.73 583.76C894.33 589.31 923.61 582.25 940.89 568.64C932.64 566.77 891.4 557.46 817.17 540.71C835.81 565.71 853.33 580.06 869.73 583.76Z" id="aYEucCxsJ"></path><path d="M754.66 557.85C775.78 562.59 801.45 554.72 817.05 540.71C809.97 539.11 774.53 531.15 710.74 516.81C725.86 541.01 740.5 554.69 754.66 557.85Z" id="a1ByT99bFj"></path><path d="M658.3 536.17C675.58 540 697.18 531.23 710.86 516.81C705.09 515.51 676.25 509.03 624.34 497.35C635.54 520.68 646.86 533.62 658.3 536.17Z" id="a1BZwZmAf4"></path><path d="M583.31 519.33C595.91 522.15 612.94 512.37 624.34 497.35C620.11 496.4 598.95 491.62 560.87 483.03C567.43 505.28 574.91 517.38 583.31 519.33Z" id="b3Bhl5LryX"></path><path d="M1156.15 648.29C1168.75 651.11 1185.67 641.33 1197.19 626.31C1192.96 625.36 1171.8 620.58 1133.72 611.99C1140.27 634.24 1147.75 646.34 1156.15 648.29Z" id="niCdHYiUU"></path><path d="M984.8 609.67C1005.92 614.41 1031.6 606.55 1047.2 592.53C1040.11 590.94 1004.67 582.97 940.89 568.64C956.01 592.83 970.64 606.51 984.8 609.67Z" id="a23m66WXy"></path><path d="M1081.16 631.35C1098.32 635.18 1120.04 626.41 1133.72 611.99C1127.95 610.69 1099.11 604.21 1047.2 592.53C1058.32 615.86 1069.64 628.8 1081.16 631.35Z" id="gpJZEZRVD"></path><path d="M903.93 922.24L1396.14 922.24L1171.63 825.14L883.89 825.14L903.93 922.24Z" id="aypO48Src"></path><path d="M899.61 901.67C919.17 902.07 939.45 902.28 960.21 902.28C1121.24 902.28 1251.67 889.77 1251.67 874.35C1251.67 858.92 1121.24 846.52 960.21 846.52C935.49 846.52 911.49 846.82 888.45 847.43C888.45 847.43 888.45 847.43 888.45 847.43C895.14 879.97 898.86 898.05 899.61 901.67Z" id="b3AXMntmyr"></path><path d="M1197.19 836.13L1181.59 829.38L884.73 829.38L886.17 836.13L1197.19 836.13ZM888.93 849.34L1227.67 849.34L1212.07 842.59L887.49 842.59L888.93 849.34ZM891.69 862.55L1258.39 862.55L1242.79 855.79L890.25 855.79L891.69 862.55ZM894.33 875.76L1288.75 875.76L1273.15 869L892.89 869L894.33 875.76ZM897.09 889.07L1319.46 889.07L1303.87 882.31L895.65 882.31L897.09 889.07ZM899.85 902.28L1349.94 902.28L1334.34 895.52L898.41 895.52L899.85 902.28ZM902.61 915.48L1380.54 915.48L1364.94 908.73L901.17 908.73L902.61 915.48Z" id="b4bAvQkLhO"></path><path d="M1088.6 849.34C1075.29 849.34 1008.73 849.34 888.93 849.34C888.64 848.13 888.48 847.46 888.45 847.32C911.49 846.82 935.49 846.52 960.21 846.52C960.21 846.52 960.21 846.52 960.21 846.52C1020.04 847.19 1062.84 848.13 1088.6 849.34ZM1224.43 862.55C1202.24 862.55 1091.29 862.55 891.57 862.55L890.13 855.79L1177.63 855.79C1200.67 858.68 1216.27 860.94 1224.43 862.55ZM1251.67 874.35C1251.67 874.85 1251.55 875.25 1251.31 875.76C1227.51 875.76 1108.52 875.76 894.33 875.76L892.89 869L1246.39 869C1249.91 871.36 1251.67 873.14 1251.67 874.35ZM1208.23 889.07C1187.49 889.07 1083.77 889.07 897.09 889.07L895.65 882.31L1239.91 882.31C1227.83 885.4 1217.27 887.66 1208.23 889.07ZM960.21 902.28C939.45 902.28 919.17 902.07 899.61 901.67C899.52 901.26 899.08 899.21 898.29 895.52L1150.63 895.52C1072.24 900.02 1008.76 902.28 960.21 902.28Z" id="a1ZFrnUMaF"></path><path d="M742.9 907.52C742.9 909.74 723.7 911.65 699.94 911.65C676.18 911.65 656.86 909.84 656.86 907.52C656.86 905.3 676.18 903.38 699.94 903.38C699.94 903.38 699.94 903.38 699.94 903.38C728.58 904.59 742.9 905.97 742.9 907.52Z" id="a5qukztej"></path><path d="M721.78 855.49C728.62 861.34 732.82 869.2 732.7 877.88C732.46 895.52 714.22 909.54 692.26 909.23C670.3 908.93 652.66 894.41 653.02 876.77C657.22 868.9 665.86 855.89 682.78 851.26C682.78 851.26 682.78 851.26 682.78 851.26C703.18 851.06 716.18 852.47 721.78 855.49Z" id="b381RYcXGt"></path><path d="M698.02 849.64C703.78 858.92 709.54 875.35 709.42 882.31C709.3 892.6 706.06 902.48 699.22 908.93C696.94 909.23 694.66 909.33 692.26 909.23C670.3 908.93 652.66 894.41 653.02 876.77C657.22 868.9 665.86 855.89 682.78 851.26C682.78 851.26 682.78 851.26 682.78 851.26C689.58 850.05 694.66 849.51 698.02 849.64Z" id="gBDKvuLWd"></path><path d="M721.78 855.49C708.1 870.21 676.18 881.61 652.9 876.87C657.22 868.9 665.86 855.89 682.78 851.26C682.78 851.26 682.78 851.26 682.78 851.26C703.18 851.06 716.18 852.47 721.78 855.49Z" id="a1Csy5rYa3"></path><path d="M688.9 853.47C689.14 854.18 686.98 855.49 683.98 856.3C680.86 857.1 678.22 857.21 677.98 856.4C677.74 855.59 679.78 854.38 682.9 853.58C682.9 853.58 682.9 853.58 682.9 853.58C686.74 852.97 688.74 852.94 688.9 853.47Z" id="a1UhGfDc3f"></path><path d="M667.06 839.76L657.1 838.85L657.22 836.94L668.62 837.75L683.74 856.3L680.74 856.9L667.06 839.76Z" id="amKq99LPm"></path><path d="M476.63 163.37C480.59 155 489.71 147.94 500.15 150.36C493.91 151.67 491.03 155.2 489.47 159.64C499.31 151.98 509.51 151.67 519.83 155.1C523.67 142.9 535.67 139.98 550.43 140.48C555.71 132.01 570.83 127.88 577.07 133.32C577.19 131.71 574.43 129.9 571.67 129.39C588.83 126.47 594.59 143 590.03 151.78C615.7 151.47 638.26 153.59 648.1 165.69C577.31 165.59 506.27 165.59 435.24 165.59C435.24 165.59 435.24 165.59 435.24 165.59C453.47 163.1 467.27 162.36 476.63 163.37Z" id="ccyWlv364"></path><path d="M1357.98 130.8C1343.34 124.25 1352.94 105.19 1371.3 106.91C1369.14 110.13 1369.14 113.76 1371.3 117.6C1380.06 113.36 1394.94 116.99 1398.66 121.53C1406.1 102.67 1434.42 87.65 1456.26 92.69C1464.78 75.25 1484.1 67.18 1506.29 69.8C1485.66 71.42 1473.66 79.38 1466.7 95.21C1487.34 78.47 1548.41 82.2 1564.37 100.05C1578.41 96.82 1591.01 101.06 1597.49 107.92C1592.21 98.44 1583.21 93.6 1571.33 92.29C1567.97 83.01 1563.17 73.94 1550.93 65.87C1548.89 56.49 1558.13 34.21 1574.21 36.13C1565.45 38.24 1562.45 59.32 1565.45 67.38C1579.13 65.06 1589.33 72.02 1591.01 79.58C1615.97 77.67 1627.01 94 1627.13 105.9C1633.13 102.37 1644.05 103.88 1651.49 109.83C1643.93 107.31 1637.21 109.13 1635.17 111.75C1646.81 109.43 1657.25 110.94 1665.76 119.11C1665.76 120.22 1665.76 125.76 1665.76 135.74L1244.95 135.74C1287.35 128.22 1325.02 126.57 1357.98 130.8Z" id="aakqIcuq5T"></path><path d="M2081.83 135.64C2048.24 122.54 1997.96 120.82 1932.56 129.19C1951.88 120.52 1939.28 95.31 1914.92 97.53C1917.68 101.87 1917.68 106.6 1914.92 111.75C1903.4 106.1 1883.72 111.04 1878.81 116.89C1868.97 91.98 1831.65 72.22 1802.85 78.88C1791.57 55.89 1766.13 45.1 1736.85 48.53C1763.97 50.65 1779.81 61.23 1789.05 82.1C1761.81 60.02 1681.3 64.96 1660.18 88.56C1641.7 84.32 1625.02 89.87 1616.5 98.84C1623.34 86.44 1635.34 79.99 1650.94 78.27C1655.26 65.97 1661.62 54.07 1677.82 43.49C1680.58 30.98 1668.34 1.64 1647.1 4.16C1658.62 6.99 1662.58 34.71 1658.62 45.4C1640.62 42.28 1627.18 51.55 1624.9 61.53C1592.02 59.01 1577.5 80.59 1577.26 96.32C1569.22 91.58 1554.94 93.7 1544.98 101.46C1554.94 98.14 1563.82 100.45 1566.46 104.08C1551.1 101.06 1537.3 103.08 1526.03 113.76C1526.03 115.23 1526.03 122.56 1526.03 135.74L2081.83 135.74C2081.83 135.69 2081.83 135.66 2081.83 135.64Z" id="a9dTrRLMX9"></path></defs><g><g><g><use xlink:href="#b1TCi4CYMd" opacity="1" fill="#bde8ff" fill-opacity="1"></use><g><use xlink:href="#b1TCi4CYMd" opacity="1" fill-opacity="0" stroke="#000000" stroke-width="1" stroke-opacity="0"></use></g></g><g><use xlink:href="#a12EMvPj7w" opacity="1" fill="#a3cfff" fill-opacity="1"></use><g><use xlink:href="#a12EMvPj7w" opacity="1" fill-opacity="0" stroke="#000000" stroke-width="1" stroke-opacity="0"></use></g></g><g><use xlink:href="#bh8I0GOvk" opacity="1" fill="#ffffff" fill-opacity="1"></use><g><use xlink:href="#bh8I0GOvk" opacity="1" fill-opacity="0" stroke="#000000" stroke-width="1" stroke-opacity="0"></use></g></g><g><use xlink:href="#k2pjmC4l46" opacity="1" fill="#b9dff7" fill-opacity="1"></use><g><use xlink:href="#k2pjmC4l46" opacity="1" fill-opacity="0" stroke="#000000" stroke-width="1" stroke-opacity="0"></use></g></g><g><use xlink:href="#c3U93yPzSR" opacity="1" fill="#ffffff" fill-opacity="1"></use><g><use xlink:href="#c3U93yPzSR" opacity="1" fill-opacity="0" stroke="#000000" stroke-width="1" stroke-opacity="0"></use></g></g><g><use xlink:href="#aixfeM8HK" opacity="1" fill="#b9dff7" fill-opacity="1"></use><g><use xlink:href="#aixfeM8HK" opacity="1" fill-opacity="0" stroke="#000000" stroke-width="1" stroke-opacity="0"></use></g></g><g><use xlink:href="#aX0Ac6GqI" opacity="1" fill="#ffffff" fill-opacity="1"></use><g><use xlink:href="#aX0Ac6GqI" opacity="1" fill-opacity="0" stroke="#000000" stroke-width="1" stroke-opacity="0"></use></g></g><g><use xlink:href="#bfqcvypig" opacity="1" fill="#b9dff7" fill-opacity="1"></use><g><use xlink:href="#bfqcvypig" opacity="1" fill-opacity="0" stroke="#000000" stroke-width="1" stroke-opacity="0"></use></g></g><g><use xlink:href="#c1U6j8Q9Qp" opacity="1" fill="#ffffff" fill-opacity="1"></use><g><use xlink:href="#c1U6j8Q9Qp" opacity="1" fill-opacity="0" stroke="#000000" stroke-width="1" stroke-opacity="0"></use></g></g><g><use xlink:href="#b5FChoQhmI" opacity="1" fill="#b9dff7" fill-opacity="1"></use><g><use xlink:href="#b5FChoQhmI" opacity="1" fill-opacity="0" stroke="#000000" stroke-width="1" stroke-opacity="0"></use></g></g><g><use xlink:href="#a31PjtO9k3" opacity="1" fill="#ffffff" fill-opacity="1"></use><g><use xlink:href="#a31PjtO9k3" opacity="1" fill-opacity="0" stroke="#000000" stroke-width="1" stroke-opacity="0"></use></g></g><g><use xlink:href="#d1ZCkTLF1o" opacity="1" fill="#b9dff7" fill-opacity="1"></use><g><use xlink:href="#d1ZCkTLF1o" opacity="1" fill-opacity="0" stroke="#000000" stroke-width="1" stroke-opacity="0"></use></g></g><g><use xlink:href="#gP4d7Ymt3" opacity="1" fill="#ffffff" fill-opacity="1"></use><g><use xlink:href="#gP4d7Ymt3" opacity="1" fill-opacity="0" stroke="#000000" stroke-width="1" stroke-opacity="0"></use></g></g><g><use xlink:href="#a1O1rugpDW" opacity="1" fill="#b9dff7" fill-opacity="1"></use><g><use xlink:href="#a1O1rugpDW" opacity="1" fill-opacity="0" stroke="#000000" stroke-width="1" stroke-opacity="0"></use></g></g><g><use xlink:href="#d9zl1iwCJ" opacity="1" fill="#ffffff" fill-opacity="1"></use><g><use xlink:href="#d9zl1iwCJ" opacity="1" fill-opacity="0" stroke="#000000" stroke-width="1" stroke-opacity="0"></use></g></g><g><use xlink:href="#c3IPa7ZjoY" opacity="1" fill="#b9dff7" fill-opacity="1"></use><g><use xlink:href="#c3IPa7ZjoY" opacity="1" fill-opacity="0" stroke="#000000" stroke-width="1" stroke-opacity="0"></use></g></g><g><use xlink:href="#b2Kuofwhe" opacity="1" fill="#ffffff" fill-opacity="1"></use><g><use xlink:href="#b2Kuofwhe" opacity="1" fill-opacity="0" stroke="#000000" stroke-width="1" stroke-opacity="0"></use></g></g><g><use xlink:href="#kwqFW4TD3" opacity="1" fill="#b9dff7" fill-opacity="1"></use><g><use xlink:href="#kwqFW4TD3" opacity="1" fill-opacity="0" stroke="#000000" stroke-width="1" stroke-opacity="0"></use></g></g><g><use xlink:href="#h14pWK63Q6" opacity="1" fill="#ffcc99" fill-opacity="1"></use><g><use xlink:href="#h14pWK63Q6" opacity="1" fill-opacity="0" stroke="#000000" stroke-width="1" stroke-opacity="0"></use></g></g><g><use xlink:href="#dADRiy2Ye" opacity="1" fill="#40bfff" fill-opacity="1"></use><g><use xlink:href="#dADRiy2Ye" opacity="1" fill-opacity="0" stroke="#000000" stroke-width="1" stroke-opacity="0"></use></g></g><g><use xlink:href="#a2IbkoxDGc" opacity="1" fill="#ffffff" fill-opacity="1"></use><g><use xlink:href="#a2IbkoxDGc" opacity="1" fill-opacity="0" stroke="#000000" stroke-width="1" stroke-opacity="0"></use></g></g><g><use xlink:href="#etBeysCbw" opacity="1" fill="#ffcc99" fill-opacity="1"></use><g><use xlink:href="#etBeysCbw" opacity="1" fill-opacity="0" stroke="#000000" stroke-width="1" stroke-opacity="0"></use></g></g><g><use xlink:href="#a60s12FgA" opacity="1" fill="#1fa394" fill-opacity="1"></use><g><use xlink:href="#a60s12FgA" opacity="1" fill-opacity="0" stroke="#000000" stroke-width="1" stroke-opacity="0"></use></g></g><g><use xlink:href="#bsCbTaylJ" opacity="1" fill="#34c290" fill-opacity="1"></use><g><use xlink:href="#bsCbTaylJ" opacity="1" fill-opacity="0" stroke="#000000" stroke-width="1" stroke-opacity="0"></use></g></g><g><use xlink:href="#f7UsEuUI7C" opacity="1" fill="#ffcc99" fill-opacity="1"></use><g><use xlink:href="#f7UsEuUI7C" opacity="1" fill-opacity="0" stroke="#000000" stroke-width="1" stroke-opacity="0"></use></g></g><g><use xlink:href="#d269NROQfl" opacity="1" fill="#1fa394" fill-opacity="1"></use><g><use xlink:href="#d269NROQfl" opacity="1" fill-opacity="0" stroke="#000000" stroke-width="1" stroke-opacity="0"></use></g></g><g><use xlink:href="#f1SC8JsSwJ" opacity="1" fill="#34c290" fill-opacity="1"></use><g><use xlink:href="#f1SC8JsSwJ" opacity="1" fill-opacity="0" stroke="#000000" stroke-width="1" stroke-opacity="0"></use></g></g><g><use xlink:href="#d2vcVpWtqO" opacity="1" fill="#c47d47" fill-opacity="1"></use><g><use xlink:href="#d2vcVpWtqO" opacity="1" fill-opacity="0" stroke="#000000" stroke-width="1" stroke-opacity="0"></use></g></g><g><use xlink:href="#b11E2CBvJh" opacity="1" fill="#a35e3b" fill-opacity="1"></use><g><use xlink:href="#b11E2CBvJh" opacity="1" fill-opacity="0" stroke="#000000" stroke-width="1" stroke-opacity="0"></use></g></g><g><use xlink:href="#aWOyVYwN7" opacity="1" fill="#ffb773" fill-opacity="1"></use><g><use xlink:href="#aWOyVYwN7" opacity="1" fill-opacity="0" stroke="#000000" stroke-width="1" stroke-opacity="0"></use></g></g><g><use xlink:href="#a2Ha6q3JCk" opacity="1" fill="#c47d47" fill-opacity="1"></use><g><use xlink:href="#a2Ha6q3JCk" opacity="1" fill-opacity="0" stroke="#000000" stroke-width="1" stroke-opacity="0"></use></g></g><g><use xlink:href="#ahskM7irM" opacity="1" fill="#a35e3b" fill-opacity="1"></use><g><use xlink:href="#ahskM7irM" opacity="1" fill-opacity="0" stroke="#000000" stroke-width="1" stroke-opacity="0"></use></g></g><g><use xlink:href="#buasBjDFo" opacity="1" fill="#ffb773" fill-opacity="1"></use><g><use xlink:href="#buasBjDFo" opacity="1" fill-opacity="0" stroke="#000000" stroke-width="1" stroke-opacity="0"></use></g></g><g><use xlink:href="#a3fBskZgo2" opacity="1" fill="#c47d47" fill-opacity="1"></use><g><use xlink:href="#a3fBskZgo2" opacity="1" fill-opacity="0" stroke="#000000" stroke-width="1" stroke-opacity="0"></use></g></g><g><use xlink:href="#baPyV7SMv" opacity="1" fill="#a35e3b" fill-opacity="1"></use><g><use xlink:href="#baPyV7SMv" opacity="1" fill-opacity="0" stroke="#000000" stroke-width="1" stroke-opacity="0"></use></g></g><g><use xlink:href="#h8r3UNeLnb" opacity="1" fill="#ffb773" fill-opacity="1"></use><g><use xlink:href="#h8r3UNeLnb" opacity="1" fill-opacity="0" stroke="#000000" stroke-width="1" stroke-opacity="0"></use></g></g><g><use xlink:href="#oVITIgLl" opacity="1" fill="#c47d47" fill-opacity="1"></use><g><use xlink:href="#oVITIgLl" opacity="1" fill-opacity="0" stroke="#000000" stroke-width="1" stroke-opacity="0"></use></g></g><g><use xlink:href="#a275oHn4QZ" opacity="1" fill="#a35e3b" fill-opacity="1"></use><g><use xlink:href="#a275oHn4QZ" opacity="1" fill-opacity="0" stroke="#000000" stroke-width="1" stroke-opacity="0"></use></g></g><g><use xlink:href="#a3EfatJP4M" opacity="1" fill="#ffb773" fill-opacity="1"></use><g><use xlink:href="#a3EfatJP4M" opacity="1" fill-opacity="0" stroke="#000000" stroke-width="1" stroke-opacity="0"></use></g></g><g><use xlink:href="#a3jqNboW7" opacity="1" fill="#c47d47" fill-opacity="1"></use><g><use xlink:href="#a3jqNboW7" opacity="1" fill-opacity="0" stroke="#000000" stroke-width="1" stroke-opacity="0"></use></g></g><g><use xlink:href="#aQdKKAvt3" opacity="1" fill="#a35e3b" fill-opacity="1"></use><g><use xlink:href="#aQdKKAvt3" opacity="1" fill-opacity="0" stroke="#000000" stroke-width="1" stroke-opacity="0"></use></g></g><g><use xlink:href="#aoftQa69m" opacity="1" fill="#ffb773" fill-opacity="1"></use><g><use xlink:href="#aoftQa69m" opacity="1" fill-opacity="0" stroke="#000000" stroke-width="1" stroke-opacity="0"></use></g></g><g><use xlink:href="#a20jMpVYXg" opacity="1" fill="#c47d47" fill-opacity="1"></use><g><use xlink:href="#a20jMpVYXg" opacity="1" fill-opacity="0" stroke="#000000" stroke-width="1" stroke-opacity="0"></use></g></g><g><use xlink:href="#a3HhVbQIlJ" opacity="1" fill="#a35e3b" fill-opacity="1"></use><g><use xlink:href="#a3HhVbQIlJ" opacity="1" fill-opacity="0" stroke="#000000" stroke-width="1" stroke-opacity="0"></use></g></g><g><use xlink:href="#aCo6VkKu6" opacity="1" fill="#ffb773" fill-opacity="1"></use><g><use xlink:href="#aCo6VkKu6" opacity="1" fill-opacity="0" stroke="#000000" stroke-width="1" stroke-opacity="0"></use></g></g><g><use xlink:href="#b6EZMBgjG" opacity="1" fill="#c47d47" fill-opacity="1"></use><g><use xlink:href="#b6EZMBgjG" opacity="1" fill-opacity="0" stroke="#000000" stroke-width="1" stroke-opacity="0"></use></g></g><g><use xlink:href="#at7Z8xNc6" opacity="1" fill="#a35e3b" fill-opacity="1"></use><g><use xlink:href="#at7Z8xNc6" opacity="1" fill-opacity="0" stroke="#000000" stroke-width="1" stroke-opacity="0"></use></g></g><g><use xlink:href="#asbKaywmK" opacity="1" fill="#ffb773" fill-opacity="1"></use><g><use xlink:href="#asbKaywmK" opacity="1" fill-opacity="0" stroke="#000000" stroke-width="1" stroke-opacity="0"></use></g></g><g><use xlink:href="#c12mbkDoip" opacity="1" fill="#c47d47" fill-opacity="1"></use><g><use xlink:href="#c12mbkDoip" opacity="1" fill-opacity="0" stroke="#000000" stroke-width="1" stroke-opacity="0"></use></g></g><g><use xlink:href="#ajKJpm8lt" opacity="1" fill="#a35e3b" fill-opacity="1"></use><g><use xlink:href="#ajKJpm8lt" opacity="1" fill-opacity="0" stroke="#000000" stroke-width="1" stroke-opacity="0"></use></g></g><g><use xlink:href="#entjdLsnx" opacity="1" fill="#ffb773" fill-opacity="1"></use><g><use xlink:href="#entjdLsnx" opacity="1" fill-opacity="0" stroke="#000000" stroke-width="1" stroke-opacity="0"></use></g></g><g><use xlink:href="#a1gnDuoWbq" opacity="1" fill="#c47d47" fill-opacity="1"></use><g><use xlink:href="#a1gnDuoWbq" opacity="1" fill-opacity="0" stroke="#000000" stroke-width="1" stroke-opacity="0"></use></g></g><g><use xlink:href="#ae2iu2WqX" opacity="1" fill="#a35e3b" fill-opacity="1"></use><g><use xlink:href="#ae2iu2WqX" opacity="1" fill-opacity="0" stroke="#000000" stroke-width="1" stroke-opacity="0"></use></g></g><g><use xlink:href="#bhU0TBFgK" opacity="1" fill="#ffb773" fill-opacity="1"></use><g><use xlink:href="#bhU0TBFgK" opacity="1" fill-opacity="0" stroke="#000000" stroke-width="1" stroke-opacity="0"></use></g></g><g><use xlink:href="#a77isGQaZ" opacity="1" fill="#c47d47" fill-opacity="1"></use><g><use xlink:href="#a77isGQaZ" opacity="1" fill-opacity="0" stroke="#000000" stroke-width="1" stroke-opacity="0"></use></g></g><g><use xlink:href="#cwex01GoR" opacity="1" fill="#a35e3b" fill-opacity="1"></use><g><use xlink:href="#cwex01GoR" opacity="1" fill-opacity="0" stroke="#000000" stroke-width="1" stroke-opacity="0"></use></g></g><g><use xlink:href="#a7B7hM6XAD" opacity="1" fill="#ffb773" fill-opacity="1"></use><g><use xlink:href="#a7B7hM6XAD" opacity="1" fill-opacity="0" stroke="#000000" stroke-width="1" stroke-opacity="0"></use></g></g><g><use xlink:href="#aSBaHX78k" opacity="1" fill="#c47d47" fill-opacity="1"></use><g><use xlink:href="#aSBaHX78k" opacity="1" fill-opacity="0" stroke="#000000" stroke-width="1" stroke-opacity="0"></use></g></g><g><use xlink:href="#dXRLkHK1D" opacity="1" fill="#a35e3b" fill-opacity="1"></use><g><use xlink:href="#dXRLkHK1D" opacity="1" fill-opacity="0" stroke="#000000" stroke-width="1" stroke-opacity="0"></use></g></g><g><use xlink:href="#d1bYallmRx" opacity="1" fill="#ffb773" fill-opacity="1"></use><g><use xlink:href="#d1bYallmRx" opacity="1" fill-opacity="0" stroke="#000000" stroke-width="1" stroke-opacity="0"></use></g></g><g><use xlink:href="#b5WF28ia7E" opacity="1" fill="#34c290" fill-opacity="1"></use><g><use xlink:href="#b5WF28ia7E" opacity="1" fill-opacity="0" stroke="#000000" stroke-width="1" stroke-opacity="0"></use></g></g><g><use xlink:href="#a1SngIZYcM" opacity="1" fill="#057551" fill-opacity="1"></use><g><use xlink:href="#a1SngIZYcM" opacity="1" fill-opacity="0" stroke="#000000" stroke-width="1" stroke-opacity="0"></use></g></g><g><use xlink:href="#c6LPvJqzZ" opacity="1" fill="#34c290" fill-opacity="1"></use><g><use xlink:href="#c6LPvJqzZ" opacity="1" fill-opacity="0" stroke="#000000" stroke-width="1" stroke-opacity="0"></use></g></g><g><use xlink:href="#aZd1RCl4" opacity="1" fill="#057551" fill-opacity="1"></use><g><use xlink:href="#aZd1RCl4" opacity="1" fill-opacity="0" stroke="#000000" stroke-width="1" stroke-opacity="0"></use></g></g><g><use xlink:href="#b1fpZzjmyp" opacity="1" fill="#34c290" fill-opacity="1"></use><g><use xlink:href="#b1fpZzjmyp" opacity="1" fill-opacity="0" stroke="#000000" stroke-width="1" stroke-opacity="0"></use></g></g><g><use xlink:href="#a1cX0qfMr3" opacity="1" fill="#057551" fill-opacity="1"></use><g><use xlink:href="#a1cX0qfMr3" opacity="1" fill-opacity="0" stroke="#000000" stroke-width="1" stroke-opacity="0"></use></g></g><g><use xlink:href="#b2B6qK23LV" opacity="1" fill="#34c290" fill-opacity="1"></use><g><use xlink:href="#b2B6qK23LV" opacity="1" fill-opacity="0" stroke="#000000" stroke-width="1" stroke-opacity="0"></use></g></g><g><use xlink:href="#a3V5UiRyNX" opacity="1" fill="#057551" fill-opacity="1"></use><g><use xlink:href="#a3V5UiRyNX" opacity="1" fill-opacity="0" stroke="#000000" stroke-width="1" stroke-opacity="0"></use></g></g><g><use xlink:href="#bgDkqS7W" opacity="1" fill="#bf946d" fill-opacity="1"></use><g><use xlink:href="#bgDkqS7W" opacity="1" fill-opacity="0" stroke="#000000" stroke-width="1" stroke-opacity="0"></use></g></g><g><use xlink:href="#dq0SN1j7j" opacity="1" fill="#78a2c4" fill-opacity="1"></use><g><use xlink:href="#dq0SN1j7j" opacity="1" fill-opacity="0" stroke="#000000" stroke-width="1" stroke-opacity="0"></use></g></g><g><use xlink:href="#bc0CgSIi" opacity="1" fill="#a6c5de" fill-opacity="1"></use><g><use xlink:href="#bc0CgSIi" opacity="1" fill-opacity="0" stroke="#000000" stroke-width="1" stroke-opacity="0"></use></g></g><g><use xlink:href="#d1hFq1Z2ks" opacity="1" fill="#ce618f" fill-opacity="1"></use><g><use xlink:href="#d1hFq1Z2ks" opacity="1" fill-opacity="0" stroke="#000000" stroke-width="1" stroke-opacity="0"></use></g></g><g><use xlink:href="#a22HLBvCzf" opacity="1" fill="#ffffff" fill-opacity="1"></use><g><use xlink:href="#a22HLBvCzf" opacity="1" fill-opacity="0" stroke="#000000" stroke-width="1" stroke-opacity="0"></use></g></g><g><use xlink:href="#aO4TYQ13i" opacity="1" fill="#ce618f" fill-opacity="1"></use><g><use xlink:href="#aO4TYQ13i" opacity="1" fill-opacity="0" stroke="#000000" stroke-width="1" stroke-opacity="0"></use></g></g><g><use xlink:href="#a5f8i79Yf6" opacity="1" fill="#ffffff" fill-opacity="1"></use><g><use xlink:href="#a5f8i79Yf6" opacity="1" fill-opacity="0" stroke="#000000" stroke-width="1" stroke-opacity="0"></use></g></g><g><use xlink:href="#aYEucCxsJ" opacity="1" fill="#a6c5de" fill-opacity="1"></use><g><use xlink:href="#aYEucCxsJ" opacity="1" fill-opacity="0" stroke="#000000" stroke-width="1" stroke-opacity="0"></use></g></g><g><use xlink:href="#a1ByT99bFj" opacity="1" fill="#a14270" fill-opacity="1"></use><g><use xlink:href="#a1ByT99bFj" opacity="1" fill-opacity="0" stroke="#000000" stroke-width="1" stroke-opacity="0"></use></g></g><g><use xlink:href="#a1BZwZmAf4" opacity="1" fill="#a6c5de" fill-opacity="1"></use><g><use xlink:href="#a1BZwZmAf4" opacity="1" fill-opacity="0" stroke="#000000" stroke-width="1" stroke-opacity="0"></use></g></g><g><use xlink:href="#b3Bhl5LryX" opacity="1" fill="#a14270" fill-opacity="1"></use><g><use xlink:href="#b3Bhl5LryX" opacity="1" fill-opacity="0" stroke="#000000" stroke-width="1" stroke-opacity="0"></use></g></g><g><use xlink:href="#niCdHYiUU" opacity="1" fill="#a14270" fill-opacity="1"></use><g><use xlink:href="#niCdHYiUU" opacity="1" fill-opacity="0" stroke="#000000" stroke-width="1" stroke-opacity="0"></use></g></g><g><use xlink:href="#a23m66WXy" opacity="1" fill="#a14270" fill-opacity="1"></use><g><use xlink:href="#a23m66WXy" opacity="1" fill-opacity="0" stroke="#000000" stroke-width="1" stroke-opacity="0"></use></g></g><g><use xlink:href="#gpJZEZRVD" opacity="1" fill="#a6c5de" fill-opacity="1"></use><g><use xlink:href="#gpJZEZRVD" opacity="1" fill-opacity="0" stroke="#000000" stroke-width="1" stroke-opacity="0"></use></g></g><g><use xlink:href="#aypO48Src" opacity="1" fill="#ffffff" fill-opacity="1"></use><g><use xlink:href="#aypO48Src" opacity="1" fill-opacity="0" stroke="#000000" stroke-width="1" stroke-opacity="0"></use></g></g><g><use xlink:href="#b3AXMntmyr" opacity="1" fill="#a6c5de" fill-opacity="1"></use><g><use xlink:href="#b3AXMntmyr" opacity="1" fill-opacity="0" stroke="#000000" stroke-width="1" stroke-opacity="0"></use></g></g><g><use xlink:href="#b4bAvQkLhO" opacity="1" fill="#ce618f" fill-opacity="1"></use><g><use xlink:href="#b4bAvQkLhO" opacity="1" fill-opacity="0" stroke="#000000" stroke-width="1" stroke-opacity="0"></use></g></g><g><use xlink:href="#a1ZFrnUMaF" opacity="1" fill="#a14270" fill-opacity="1"></use><g><use xlink:href="#a1ZFrnUMaF" opacity="1" fill-opacity="0" stroke="#000000" stroke-width="1" stroke-opacity="0"></use></g></g><g><use xlink:href="#a5qukztej" opacity="1" fill="#bf946d" fill-opacity="1"></use><g><use xlink:href="#a5qukztej" opacity="1" fill-opacity="0" stroke="#000000" stroke-width="1" stroke-opacity="0"></use></g></g><g><use xlink:href="#b381RYcXGt" opacity="1" fill="#7fb04d" fill-opacity="1"></use><g><use xlink:href="#b381RYcXGt" opacity="1" fill-opacity="0" stroke="#000000" stroke-width="1" stroke-opacity="0"></use></g></g><g><use xlink:href="#gBDKvuLWd" opacity="1" fill="#99cc66" fill-opacity="1"></use><g><use xlink:href="#gBDKvuLWd" opacity="1" fill-opacity="0" stroke="#000000" stroke-width="1" stroke-opacity="0"></use></g></g><g><use xlink:href="#a1Csy5rYa3" opacity="1" fill="#ffffcc" fill-opacity="1"></use><g><use xlink:href="#a1Csy5rYa3" opacity="1" fill-opacity="0" stroke="#000000" stroke-width="1" stroke-opacity="0"></use></g></g><g><use xlink:href="#a1UhGfDc3f" opacity="1" fill="#78a2c4" fill-opacity="1"></use><g><use xlink:href="#a1UhGfDc3f" opacity="1" fill-opacity="0" stroke="#000000" stroke-width="1" stroke-opacity="0"></use></g></g><g><use xlink:href="#amKq99LPm" opacity="1" fill="#ffffff" fill-opacity="1"></use><g><use xlink:href="#amKq99LPm" opacity="1" fill-opacity="0" stroke="#000000" stroke-width="1" stroke-opacity="0"></use></g></g><g><use xlink:href="#ccyWlv364" opacity="1" fill="#b9dff7" fill-opacity="1"></use><g><use xlink:href="#ccyWlv364" opacity="1" fill-opacity="0" stroke="#000000" stroke-width="1" stroke-opacity="0"></use></g></g><g><use xlink:href="#aakqIcuq5T" opacity="1" fill="#b9dff7" fill-opacity="1"></use><g><use xlink:href="#aakqIcuq5T" opacity="1" fill-opacity="0" stroke="#000000" stroke-width="1" stroke-opacity="0"></use></g></g><g><use xlink:href="#a9dTrRLMX9" opacity="1" fill="#b9dff7" fill-opacity="1"></use><g><use xlink:href="#a9dTrRLMX9" opacity="1" fill-opacity="0" stroke="#000000" stroke-width="1" stroke-opacity="0"></use></g></g></g></g></svg>