<?xml version="1.0" encoding="utf-8"?>
<!-- Generator: Adobe Illustrator 22.1.0, SVG Export Plug-In . SVG Version: 6.00 Build 0)  -->
<svg version="1.1" id="Layer_1" xmlns="http://www.w3.org/2000/svg" xmlns:xlink="http://www.w3.org/1999/xlink" x="0px" y="0px"
	 viewBox="0 0 1138.684 641.739" enable-background="new 0 0 1138.684 641.739" xml:space="preserve">
<rect y="0" fill="#89CFF3" width="1138.684" height="640.306"/>
<rect y="558.235" fill="#4DB1DA" width="1138.684" height="83.503"/>
<g>
	<rect x="515.341" y="23.314" fill="#ACDAF5" width="310.107" height="533.072"/>
	<rect x="530.317" y="41.518" fill="#60C4F0" width="280.156" height="514.868"/>
	<rect x="612.304" y="124.845" fill="#ACDAF5" width="116.181" height="18.999"/>
	<ellipse fill="#ACDAF5" cx="786.81" cy="334.497" rx="10.901" ry="10.897"/>
</g>
<g>
	<ellipse fill="#42BEEE" cx="1026.789" cy="95.615" rx="45.503" ry="45.489"/>
</g>
<g>
	<ellipse fill="#60C4F0" cx="1023.387" cy="95.615" rx="45.503" ry="45.489"/>
</g>
<ellipse fill="#DFF3FD" cx="1023.387" cy="95.615" rx="40.298" ry="40.285"/>
<g>
	<path fill="#42BEEE" d="M1023.387,134.345L1023.387,134.345c-0.265,0-0.479-0.214-0.479-0.479v-3.546
		c0-0.264,0.214-0.479,0.479-0.479h0c0.264,0,0.479,0.215,0.479,0.479v3.546C1023.866,134.13,1023.652,134.345,1023.387,134.345z"/>
	<path fill="#42BEEE" d="M1023.387,60.993L1023.387,60.993c-0.265,0-0.479-0.214-0.479-0.479v-3.546
		c0-0.265,0.214-0.479,0.479-0.479h0c0.264,0,0.479,0.214,0.479,0.479v3.546C1023.866,60.778,1023.652,60.993,1023.387,60.993z"/>
	<path fill="#42BEEE" d="M984.447,95.417L984.447,95.417c0-0.264,0.214-0.479,0.479-0.479h3.548c0.264,0,0.479,0.214,0.479,0.479
		l0,0c0,0.264-0.214,0.479-0.479,0.479h-3.548C984.661,95.895,984.447,95.681,984.447,95.417z"/>
	<path fill="#42BEEE" d="M1057.822,95.417L1057.822,95.417c0-0.264,0.214-0.479,0.479-0.479h3.548c0.264,0,0.479,0.214,0.479,0.479
		l0,0c0,0.264-0.214,0.479-0.479,0.479h-3.548C1058.036,95.895,1057.822,95.681,1057.822,95.417z"/>
	<path fill="#42BEEE" d="M995.852,67.89L995.852,67.89c0.187-0.187,0.49-0.187,0.677,0l2.509,2.508c0.187,0.187,0.187,0.49,0,0.677
		l0,0c-0.187,0.187-0.49,0.187-0.677,0l-2.508-2.508C995.665,68.381,995.665,68.077,995.852,67.89z"/>
	<path fill="#42BEEE" d="M1047.736,119.758L1047.736,119.758c0.187-0.187,0.49-0.187,0.677,0l2.508,2.508
		c0.187,0.187,0.187,0.49,0,0.677l0,0c-0.187,0.187-0.49,0.187-0.677,0l-2.508-2.508
		C1047.549,120.248,1047.549,119.945,1047.736,119.758z"/>
	<path fill="#42BEEE" d="M995.852,122.943L995.852,122.943c-0.187-0.187-0.187-0.49,0-0.677l2.508-2.508
		c0.187-0.187,0.49-0.187,0.677,0l0,0c0.187,0.187,0.187,0.49,0,0.677l-2.509,2.508C996.342,123.13,996.039,123.13,995.852,122.943z
		"/>
	<path fill="#42BEEE" d="M1047.736,71.075L1047.736,71.075c-0.187-0.187-0.187-0.49,0-0.677l2.508-2.508
		c0.187-0.187,0.49-0.187,0.677,0l0,0c0.187,0.187,0.187,0.49,0,0.677l-2.508,2.508
		C1048.227,71.262,1047.923,71.262,1047.736,71.075z"/>
</g>
<path fill="#42BEEE" d="M1023.387,102.395L1023.387,102.395c-0.529,0-0.958-0.429-0.958-0.958V63.642
	c0-0.529,0.429-0.958,0.958-0.958h0c0.529,0,0.958,0.429,0.958,0.958v37.796C1024.345,101.967,1023.916,102.395,1023.387,102.395z"
	/>
<path fill="#42BEEE" d="M1016.809,95.615L1016.809,95.615c0-0.529,0.429-0.958,0.958-0.958h30.656c0.529,0,0.958,0.429,0.958,0.958
	l0,0c0,0.529-0.429,0.958-0.958,0.958h-30.656C1017.238,96.573,1016.809,96.144,1016.809,95.615z"/>
<g>
	<polyline fill="none" stroke="#2F4148" stroke-width="1.1859" stroke-miterlimit="10" points="125.861,69.903 234.51,34.297 
		341.174,73.1 	"/>
	<path fill="#ACDAF5" d="M94.741,276.033c-11.581,0-21.004-9.448-21.004-21.061V90.786c0-11.613,9.422-21.061,21.004-21.061h277.553
		c11.581,0,21.004,9.448,21.004,21.061v164.186c0,11.613-9.422,21.061-21.004,21.061H94.741z"/>
	<path fill="#60C4F0" d="M386.744,254.972c0,8.003-6.47,14.49-14.45,14.49H94.741c-7.98,0-14.45-6.487-14.45-14.49V90.786
		c0-8.002,6.47-14.489,14.45-14.489h277.553c7.98,0,14.45,6.487,14.45,14.489V254.972z"/>
	<g>
		
			<rect x="95.203" y="90.379" transform="matrix(0.2009 -0.9796 0.9796 0.2009 -19.8563 239.2051)" fill="#ACDAF5" width="82.978" height="82.789"/>
		<g>
			<path fill="#AC4233" d="M147.644,92.453c-0.316,1.539-2.61,3.296-3.521,3.109c-0.72-0.148-2.322-2.76-2.006-4.299
				c0.316-1.539,1.615-1.591,3.15-1.276C146.802,90.302,147.96,90.914,147.644,92.453z"/>
			<path fill="#DD5745" d="M147.713,92.186c-0.316,1.539-1.817,2.532-3.352,2.217c-1.535-0.315-2.524-1.818-2.208-3.358
				s1.817-2.532,3.352-2.217C147.04,89.144,148.029,90.647,147.713,92.186z"/>
		</g>
	</g>
	<g>
		<polygon fill="#ACDAF5" points="298.705,234.728 205.89,252.418 181.985,124.993 274.8,107.302 		"/>
		<g>
			
				<rect x="194.14" y="140.473" transform="matrix(0.9815 -0.1917 0.1917 0.9815 -22.8451 47.0383)" fill="#60C4F0" width="75.196" height="2.285"/>
			
				<rect x="195.079" y="145.278" transform="matrix(0.9815 -0.1917 0.1917 0.9815 -23.7486 47.3074)" fill="#60C4F0" width="75.196" height="2.285"/>
			
				<rect x="196.018" y="150.083" transform="matrix(0.9815 -0.1917 0.1917 0.9815 -24.6522 47.5764)" fill="#60C4F0" width="75.196" height="2.285"/>
			
				<rect x="196.957" y="154.888" transform="matrix(0.9815 -0.1917 0.1917 0.9815 -25.5559 47.8458)" fill="#60C4F0" width="75.196" height="2.285"/>
			
				<rect x="200.011" y="170.517" transform="matrix(0.9815 -0.1917 0.1917 0.9815 -28.4944 48.7204)" fill="#60C4F0" width="75.196" height="2.285"/>
			
				<rect x="200.95" y="175.322" transform="matrix(0.9815 -0.1917 0.1917 0.9815 -29.3979 48.9894)" fill="#60C4F0" width="75.196" height="2.285"/>
			
				<rect x="201.889" y="180.128" transform="matrix(0.9815 -0.1917 0.1917 0.9815 -30.3015 49.2584)" fill="#60C4F0" width="75.196" height="2.285"/>
			
				<rect x="206.85" y="202.538" transform="matrix(0.9815 -0.1917 0.1917 0.9815 -34.5047 50.625)" fill="#60C4F0" width="75.196" height="2.285"/>
			
				<rect x="207.789" y="207.343" transform="matrix(0.9815 -0.1917 0.1917 0.9815 -35.4081 50.894)" fill="#60C4F0" width="75.196" height="2.285"/>
			
				<rect x="208.728" y="212.149" transform="matrix(0.9815 -0.1917 0.1917 0.9815 -36.3118 51.1631)" fill="#60C4F0" width="75.196" height="2.285"/>
		</g>
		<g>
			<path fill="#AC4233" d="M231.723,116.408c0.336,1.762-1.321,4.612-2.363,4.811c-0.824,0.157-3.65-1.903-3.986-3.665
				c-0.336-1.762,1.012-2.381,2.769-2.715C229.9,114.503,231.387,114.646,231.723,116.408z"/>
			<path fill="#DD5745" d="M231.68,116.096c0.336,1.762-0.816,3.462-2.573,3.797c-1.757,0.335-3.454-0.822-3.79-2.584
				c-0.336-1.762,0.816-3.462,2.573-3.797C229.647,113.177,231.344,114.334,231.68,116.096z"/>
		</g>
	</g>
	<g>
		
			<rect x="295.42" y="100.112" transform="matrix(0.2265 -0.974 0.974 0.2265 127.4816 429.6317)" fill="#ACDAF5" width="77.654" height="68.877"/>
		<g>
			<path fill="#AC4233" d="M345.411,98.009c-0.327,1.404-2.473,2.96-3.304,2.767c-0.657-0.153-2.063-2.587-1.737-3.992
				c0.327-1.405,1.519-1.421,2.92-1.095C344.692,96.015,345.738,96.604,345.411,98.009z"/>
			<path fill="#DD5745" d="M345.481,97.766c-0.327,1.404-1.727,2.279-3.128,1.953c-1.401-0.326-2.271-1.728-1.944-3.133
				c0.327-1.404,1.727-2.279,3.128-1.953C344.937,94.958,345.808,96.361,345.481,97.766z"/>
		</g>
		<g>
			
				<rect x="339.487" y="83.353" transform="matrix(0.2265 -0.974 0.974 0.2265 157.6564 415.1963)" fill="#60C4F0" width="1.518" height="49.962"/>
			
				<rect x="338.75" y="86.521" transform="matrix(0.2265 -0.974 0.974 0.2265 153.9995 416.9285)" fill="#60C4F0" width="1.518" height="49.962"/>
			
				<rect x="338.012" y="89.69" transform="matrix(0.2265 -0.974 0.974 0.2265 150.3428 418.6612)" fill="#60C4F0" width="1.518" height="49.962"/>
		</g>
	</g>
	<g>
		<rect x="318.038" y="194.907" fill="#ACDAF5" width="55.542" height="57.511"/>
		<g>
			<path fill="#AC4233" d="M347.898,195.477c0,1.162-1.401,2.777-2.089,2.777c-0.544,0-2.093-1.655-2.093-2.818
				c0-1.163,0.934-1.393,2.093-1.393C346.969,194.043,347.898,194.314,347.898,195.477z"/>
			<path fill="#DD5745" d="M347.908,195.274c0,1.163-0.94,2.105-2.1,2.105c-1.16,0-2.1-0.943-2.1-2.105
				c0-1.163,0.94-2.106,2.1-2.106C346.968,193.168,347.908,194.111,347.908,195.274z"/>
		</g>
		<g>
			<rect x="325.583" y="207.261" fill="#60C4F0" width="40.29" height="1.224"/>
			<rect x="325.583" y="209.885" fill="#60C4F0" width="40.29" height="1.224"/>
			<rect x="325.583" y="212.508" fill="#60C4F0" width="40.29" height="1.224"/>
			<rect x="325.583" y="215.131" fill="#60C4F0" width="40.29" height="1.224"/>
			<rect x="325.583" y="223.663" fill="#60C4F0" width="40.29" height="1.224"/>
			<rect x="325.583" y="226.286" fill="#60C4F0" width="40.29" height="1.224"/>
			<rect x="325.583" y="228.91" fill="#60C4F0" width="40.29" height="1.224"/>
		</g>
	</g>
	<g>
		<path fill="#42BEEE" d="M156.526,244.232c-4.141-7.717,3.539-31.589,3.539-31.589l-46.252-9.179l-6.612,33.146
			C142.495,248.85,156.526,244.232,156.526,244.232z"/>
	</g>
	<g>
		<path fill="#42BEEE" d="M254.262,93.059c7.796-4.02,15.007-28.023,15.007-28.023l43.36,18.554l-13.356,31.041
			C263.215,104.786,254.262,93.059,254.262,93.059z"/>
	</g>
</g>
<g>
	<path fill="#D3E7F0" d="M987.959,258.235v68.352c0,17.842,11.796,32.306,26.347,32.306h8.275V364h21.481v-5.107h8.275
		c14.551,0,26.347-14.464,26.347-32.306v-68.352c0-9.22-6.095-16.694-13.615-16.694h-63.496
		C994.054,241.541,987.959,249.015,987.959,258.235z"/>
	<path fill="#9AD5F0" d="M1078.277,267.541h-89.911c-2.321,0-4.202-1.881-4.202-4.202v-2.52c0-10.647,8.631-19.278,19.278-19.278
		h59.759c10.647,0,19.278,8.631,19.278,19.278v2.52C1082.479,265.66,1080.597,267.541,1078.277,267.541z"/>
	<path fill="#9AD5F0" d="M1078.277,302.82h-89.911c-2.321,0-4.202-1.881-4.202-4.202v-17.596c0-2.321,1.881-4.202,4.202-4.202
		h89.911c2.32,0,4.202,1.881,4.202,4.202v17.596C1082.479,300.939,1080.597,302.82,1078.277,302.82z"/>
	<path fill="#9AD5F0" d="M1078.277,338.1h-89.911c-2.321,0-4.202-1.881-4.202-4.202v-17.596c0-2.321,1.881-4.202,4.202-4.202h89.911
		c2.32,0,4.202,1.881,4.202,4.202v17.596C1082.479,336.219,1080.597,338.1,1078.277,338.1z"/>
	<rect x="1011.268" y="364" fill="#42BEEE" width="44.107" height="11.067"/>
	<path fill="#D3E7F0" d="M1093.616,386.134h-120.59v-4.326c0-3.723,3.018-6.741,6.741-6.741h107.108
		c3.723,0,6.741,3.018,6.741,6.741V386.134z"/>
	<rect x="973.027" y="386.134" fill="#D3E7F0" width="120.59" height="172.102"/>
	<path fill="#9AD5F0" d="M1078.684,505.538v-93.05c0-4.344-3.522-7.865-7.867-7.865h-74.991c-4.345,0-7.867,3.521-7.867,7.865v93.05
		H1078.684z"/>
	<rect x="987.959" y="512.216" fill="#42BEEE" width="90.725" height="6.679"/>
	<path fill="#42BEEE" d="M987.959,525.128v6.755c0,4.344,3.522,7.865,7.867,7.865h74.991c4.345,0,7.867-3.521,7.867-7.865v-6.755
		H987.959z"/>
	<rect x="994.351" y="440.533" fill="#42BEEE" width="77.941" height="31.652"/>
	<path fill="#42BEEE" d="M1103.194,488.235h-9.578v-73.638h9.578c5.913,0,10.706,4.793,10.706,10.706v52.225
		C1113.9,483.441,1109.107,488.235,1103.194,488.235z"/>
</g>
<g>
	<path fill="#0074B2" d="M111.935,606.385h235.913c2.856,0,5.172,2.315,5.172,5.172l0,0c0,2.856-2.316,5.172-5.172,5.172H111.935
		c-2.856,0-5.172-2.316-5.172-5.172l0,0C106.763,608.7,109.078,606.385,111.935,606.385z"/>
	<ellipse fill="#00648E" cx="137.468" cy="598.271" rx="15.488" ry="15.483"/>
	<ellipse fill="#00648E" cx="242.575" cy="598.271" rx="15.488" ry="15.483"/>
	<ellipse fill="#00648E" cx="314.73" cy="598.271" rx="15.488" ry="15.483"/>
	<path fill="#00648E" d="M66.02,457.986l72.525,26.581l-3.525,9.613l-62.911-23.057C66.799,469.177,64.073,463.295,66.02,457.986
		L66.02,457.986z"/>
	<path fill="#009AD8" d="M102.733,537.851l18.172,12.944v-66.591l-23.511-8.478c-2.323-0.838-4.774,0.883-4.774,3.352v39.157
		C92.621,526.023,96.388,533.331,102.733,537.851z"/>
	<rect x="117.009" y="362.353" fill="#D4EFFC" width="132.868" height="235.918"/>
	<rect x="242.575" y="362.353" fill="#FFFFFF" width="19.436" height="235.918"/>
	<rect x="262.011" y="362.353" fill="#D4EFFC" width="76.258" height="235.918"/>
	<g>
		<g>
			<g>
				<rect x="270.336" y="406.502" fill="#009AD8" width="56.445" height="11.898"/>
			</g>
		</g>
	</g>
	<rect x="262.011" y="362.353" fill="#009AD8" width="76.258" height="8.631"/>
	<rect x="117.009" y="362.353" fill="#FFFFFF" width="125.565" height="8.631"/>
	
		<rect x="117.009" y="370.985" fill="#FFFFFF" stroke="#4D90AA" stroke-width="0.6617" stroke-miterlimit="10" width="125.565" height="62.335"/>
	
		<rect x="117.009" y="433.32" fill="#FFFFFF" stroke="#4D90AA" stroke-width="0.6617" stroke-miterlimit="10" width="125.565" height="106.552"/>
	
		<rect x="117.009" y="539.872" fill="#FFFFFF" stroke="#4D90AA" stroke-width="0.6617" stroke-miterlimit="10" width="125.565" height="30.24"/>
	
		<rect x="117.009" y="570.112" fill="#FFFFFF" stroke="#4D90AA" stroke-width="0.6617" stroke-miterlimit="10" width="125.565" height="28.159"/>
	<g>
		<rect x="147.838" y="406.502" fill="#D4EFFC" width="56.445" height="11.898"/>
	</g>
	<g>
		<rect x="147.838" y="549.043" fill="#D4EFFC" width="56.445" height="11.898"/>
	</g>
	<g>
		<rect x="147.838" y="577.37" fill="#D4EFFC" width="56.445" height="11.898"/>
	</g>
	<path fill="#009AD8" d="M117.116,362.353h134.72v-17.857H134.973C125.111,344.496,117.116,352.491,117.116,362.353L117.116,362.353
		z"/>
	<path fill="#009AD8" d="M175.034,362.353h163.97v-32.642c0-12.572-10.191-22.763-22.763-22.763H193.915
		c-10.428,0-18.881,8.453-18.881,18.881V362.353z"/>
	<path fill="#00648E" d="M261.371,362.353h77.633v-32.487c0-12.657-10.261-22.918-22.918-22.918h-54.715V362.353z"/>
	<path fill="#00648E" d="M241.271,362.353h97.733v-17.857h-79.876C249.265,344.496,241.271,352.491,241.271,362.353L241.271,362.353
		z"/>
	<path fill="#00648E" d="M150.585,315.516l110.786,1.517v16.24h-66.004l-49.378-10.036c-0.804-0.116-1.523-0.563-1.982-1.234l0,0
		C144.007,318.385,146.967,315.467,150.585,315.516z"/>
	<polygon fill="#009AD8" points="261.371,317.033 261.371,327.123 199.434,323.055 189.113,315.516 	"/>
	<path fill="#009AD8" d="M150.496,315.426h42.699c3.446,0,6.239,2.792,6.239,6.237v1.392l-55.427-1.141l0,0
		C144.007,318.331,146.912,315.426,150.496,315.426z"/>
</g>
<g>
	<g>
		<g>
			<rect x="745.094" y="500.337" fill="#00193B" width="15.983" height="70.166"/>
		</g>
		<g>
			<path fill="#00193B" d="M758.641,508.343h-11.11c-6.799,0-12.31-5.511-12.31-12.31v-26.761h35.73v26.761
				C770.951,502.831,765.439,508.343,758.641,508.343z"/>
		</g>
		<g>
			<g>
				<path fill="#002B4A" d="M811.35,275.847h-70.087c-10.405,0-19.029,8.064-19.724,18.442l-10.758,159.608h110.377l9.923-157.062
					C831.788,285.461,822.751,275.847,811.35,275.847z"/>
			</g>
		</g>
		<g>
			<defs>
				<path id="SVGID_1_" d="M811.35,275.847h-70.087c-10.405,0-19.029,8.064-19.724,18.442l-10.758,159.608h110.377l9.923-157.062
					C831.788,285.461,822.751,275.847,811.35,275.847z"/>
			</defs>
			<clipPath id="SVGID_2_">
				<use xlink:href="#SVGID_1_"  overflow="visible"/>
			</clipPath>
			<g clip-path="url(#SVGID_2_)">
				<g>
					<path fill="#003866" d="M898.734,275.847h-70.087c-10.405,0-19.029,8.064-19.724,18.442l-10.758,159.608h110.377l9.923-157.062
						C919.171,285.461,910.134,275.847,898.734,275.847z"/>
				</g>
			</g>
		</g>
	</g>
	<g>
		<path fill="#002B4A" d="M809.817,469.272h-129.9c-6.659,0-12.057-5.398-12.057-12.057l0,0c0-6.659,5.398-12.057,12.057-12.057
			h129.9c6.659,0,12.057,5.398,12.057,12.057l0,0C821.874,463.874,816.476,469.272,809.817,469.272z"/>
	</g>
	<g>
		<defs>
			<path id="SVGID_3_" d="M809.817,469.272h-129.9c-6.659,0-12.057-5.398-12.057-12.057l0,0c0-6.659,5.398-12.057,12.057-12.057
				h129.9c6.659,0,12.057,5.398,12.057,12.057l0,0C821.874,463.874,816.476,469.272,809.817,469.272z"/>
		</defs>
		<clipPath id="SVGID_4_">
			<use xlink:href="#SVGID_3_"  overflow="visible"/>
		</clipPath>
		<g clip-path="url(#SVGID_4_)">
			<path fill="#003866" d="M903.034,469.272h-129.9c-6.659,0-12.057-5.398-12.057-12.057l0,0c0-6.659,5.398-12.057,12.057-12.057
				h129.9c6.659,0,12.057,5.398,12.057,12.057l0,0C915.091,463.874,909.693,469.272,903.034,469.272z"/>
		</g>
	</g>
	<g>
		<path fill="#00193B" d="M797.72,583.913h-89.27c-3.703,0-6.705-3.002-6.705-6.705l0,0c0-3.703,3.002-6.705,6.705-6.705h89.27
			c3.703,0,6.705,3.002,6.705,6.705l0,0C804.425,580.911,801.423,583.913,797.72,583.913z"/>
	</g>
	<g>
		<path fill="#00193B" d="M777.855,583.913h-49.54c-3.26,0-5.904-2.643-5.904-5.904v-1.602c0-3.26,2.643-5.904,5.904-5.904h49.54
			c3.26,0,5.904,2.643,5.904,5.904v1.602C783.759,581.269,781.116,583.913,777.855,583.913z"/>
	</g>
	<g>
		<ellipse cx="706.309" cy="586.854" rx="8.572" ry="8.569"/>
	</g>
	<g>
		<path d="M738.261,586.854c0,4.733-3.838,8.569-8.572,8.569c-4.734,0-8.572-3.836-8.572-8.569s3.838-8.569,8.572-8.569
			C734.423,578.285,738.261,582.121,738.261,586.854z"/>
	</g>
	<g>
		<ellipse cx="776.563" cy="586.854" rx="8.572" ry="8.569"/>
	</g>
	<g>
		<ellipse cx="799.943" cy="586.854" rx="8.572" ry="8.569"/>
	</g>
</g>
<g>
	<g>
		<path fill="#326D8F" d="M454.556,417.618h32.932l0.699-124.397c0.339-2.857-0.957-5.523-2.685-5.523h-29.591L454.556,417.618z"/>
	</g>
	<g>
		<path fill="#3D80AF" d="M450.682,417.618h32.932l1.355-129.92h-30.842c-1.215,0-2.262,1.446-2.5,3.455L450.682,417.618z"/>
	</g>
	<g>
		<path fill="#56A7C9" d="M429.432,408.664h79.588c2.729,0,5.079,3.747,5.615,8.954l0,0H424.83l0,0
			C424.83,412.673,426.891,408.664,429.432,408.664z"/>
	</g>
	<g>
		<defs>
			<path id="SVGID_5_" d="M429.432,408.664h79.588c2.729,0,5.079,3.747,5.615,8.954l0,0H424.83l0,0
				C424.83,412.673,426.891,408.664,429.432,408.664z"/>
		</defs>
		<clipPath id="SVGID_6_">
			<use xlink:href="#SVGID_5_"  overflow="visible"/>
		</clipPath>
		<g clip-path="url(#SVGID_6_)">
			<path fill="#326D8F" d="M497.672,408.664h79.588c2.729,0,5.079,3.747,5.615,8.954l0,0H493.07l0,0
				C493.07,412.673,495.13,408.664,497.672,408.664z"/>
		</g>
	</g>
	<path fill="none" d="M361.288,326.405v82.816c0,5.351,4.339,9.689,9.692,9.689h50.768c5.353,0,9.692,4.338,9.692,9.689v44.679
		c0,12.63,10.242,22.868,22.875,22.868l0,0c12.634,0,22.875-10.238,22.875-22.868V428.6c0-5.351,4.34-9.689,9.692-9.689h57.257"/>
	<g>
		<path fill="#3D80AF" d="M351.4,361.9h245.224c4.102,0,7.428-3.326,7.428-7.428V200.427c0-4.102-3.326-7.428-7.428-7.428H351.4
			c-4.102,0-7.428,3.326-7.428,7.428v154.044C343.972,358.574,347.297,361.9,351.4,361.9z"/>
	</g>
	<g>
		<path fill="#56A7C9" d="M341.725,361.9h245.224c4.102,0,7.428-3.326,7.428-7.428V200.427c0-4.102-3.326-7.428-7.428-7.428H341.725
			c-4.102,0-7.428,3.326-7.428,7.428v154.044C334.297,358.574,337.623,361.9,341.725,361.9z"/>
	</g>
	<path fill="#FFFFFF" d="M468.729,349.076c-1.475,0-2.67-1.195-2.67-2.669c0-0.656,0.246-1.249,0.639-1.714
		c-0.714-0.349-1.513-0.549-2.361-0.549c-2.98,0-5.396,2.415-5.396,5.394c0,2.979,2.416,5.394,5.396,5.394
		c2.98,0,5.396-2.415,5.396-5.394c0-0.219-0.017-0.435-0.042-0.647C469.391,349.007,469.069,349.076,468.729,349.076z"/>
	<g>
		<rect x="339.127" y="200.426" fill="#FFFFFF" width="250.421" height="139.179"/>
	</g>
	<g>
		<path fill="#EBEBEB" d="M581.575,332.092c0,2.03-1.647,3.676-3.678,3.676H349.541c-2.031,0-3.678-1.646-3.678-3.676V208.622
			c0-2.03,1.647-3.676,3.678-3.676h228.356c2.031,0,3.678,1.646,3.678,3.676V332.092z"/>
		<rect x="351.46" y="303.207" fill="#91E1C0" width="224.487" height="26.096"/>
		<rect x="351.104" y="220.859" fill="#007AB3" width="225.231" height="26.365"/>
		<rect x="345.864" y="204.946" fill="#BF93C3" width="235.711" height="11.397"/>
		<rect x="357.799" y="226.605" fill="#FFFFFF" width="211.807" height="12.499"/>
		<rect x="351.46" y="279.055" fill="#BF93C3" width="78.26" height="18.146"/>
		<rect x="435.03" y="279.055" fill="#91E1C0" width="141.305" height="18.146"/>
		<rect x="357.783" y="310.228" fill="#FFFFFF" width="71.588" height="5.017"/>
		<rect x="435.932" y="310.228" fill="#FFFFFF" width="134.823" height="5.017"/>
		<rect x="357.783" y="319.235" fill="#FFFFFF" width="71.588" height="5.017"/>
		<rect x="435.932" y="319.235" fill="#FFFFFF" width="134.823" height="5.017"/>
		<path fill="#FFFFFF" d="M552.503,210.644c0,1.49-1.208,2.699-2.699,2.699s-2.7-1.208-2.7-2.699s1.209-2.699,2.7-2.699
			S552.503,209.154,552.503,210.644z"/>
		<path fill="#FFFFFF" d="M563.547,210.644c0,1.49-1.209,2.699-2.7,2.699c-1.491,0-2.699-1.208-2.699-2.699s1.208-2.699,2.699-2.699
			C562.338,207.945,563.547,209.154,563.547,210.644z"/>
		<path fill="#FFFFFF" d="M574.59,210.644c0,1.49-1.208,2.699-2.699,2.699c-1.491,0-2.7-1.208-2.7-2.699s1.208-2.699,2.7-2.699
			C573.382,207.945,574.59,209.154,574.59,210.644z"/>
		<rect x="557.104" y="226.605" fill="#91E1C0" width="12.503" height="12.499"/>
	</g>
</g>
<g>
	<g>
		
			<rect x="848.51" y="432.163" transform="matrix(-1 -1.224647e-16 1.224647e-16 -1 1875.7463 1042.9943)" fill="#0074B2" width="178.726" height="178.669"/>
		<polygon fill="#005484" points="1027.236,432.163 861.053,432.163 861.053,439.35 1027.236,492.845 		"/>
		<g>
			<rect x="484.724" y="417.57" fill="#D8D9DA" width="558.346" height="14.593"/>
		</g>
		
			<rect x="353.51" y="432.163" transform="matrix(-1 -1.224647e-16 1.224647e-16 -1 993.1811 1042.9941)" fill="#0074B2" width="286.161" height="178.669"/>
		<polygon fill="#005484" points="353.878,432.163 639.147,432.163 639.147,531.675 353.878,439.35 		"/>
		<g>
			<rect x="333.872" y="432.163" fill="#71D0F6" width="131.29" height="178.669"/>
		</g>
		<g>
			<g>
				<rect x="336.757" y="442.018" fill="#71D0F6" width="125.52" height="52.772"/>
				<rect x="375.368" y="464.455" width="49.364" height="7.541"/>
			</g>
			<g>
				<rect x="336.757" y="495.111" fill="#71D0F6" width="125.52" height="52.772"/>
				<rect x="375.368" y="516.172" width="49.364" height="7.541"/>
			</g>
			<g>
				<rect x="336.757" y="548.204" fill="#71D0F6" width="125.52" height="52.772"/>
				
					<line fill="none" stroke="#4D90AA" stroke-width="0.7187" stroke-miterlimit="10" x1="335.314" y1="495.111" x2="463.719" y2="495.111"/>
				
					<line fill="none" stroke="#4D90AA" stroke-width="0.7187" stroke-miterlimit="10" x1="335.314" y1="544.774" x2="463.719" y2="544.774"/>
				
					<line fill="none" stroke="#4D90AA" stroke-width="0.7187" stroke-miterlimit="10" x1="335.314" y1="594.438" x2="463.719" y2="594.438"/>
				
					<line fill="none" stroke="#4D90AA" stroke-width="0.7187" stroke-miterlimit="10" x1="335.314" y1="442.018" x2="463.719" y2="442.018"/>
				<rect x="375.368" y="565.836" width="49.364" height="7.541"/>
			</g>
		</g>
		<g>
			<rect x="722.604" y="432.163" fill="#71D0F6" width="137.945" height="178.669"/>
		</g>
		<rect x="734.232" y="432.163" fill="#0074B2" width="114.278" height="178.669"/>
		<rect x="734.232" y="486.753" fill="#71D0F6" width="113.852" height="8.599"/>
		<rect x="734.232" y="547.376" fill="#71D0F6" width="113.852" height="8.599"/>
		<g>
			<rect x="318.038" y="417.57" fill="#FFFFFF" width="558.346" height="14.593"/>
		</g>
	</g>
</g>
<g>
	<g>
		<path fill="#2E3133" d="M509.798,412.227h164.795c3.173,0,5.905,2.238,6.528,5.349l0,0H504.448l0,0
			C504.448,414.622,506.844,412.227,509.798,412.227z"/>
	</g>
	<g>
		<defs>
			<path id="SVGID_7_" d="M509.798,412.227h164.795c3.173,0,5.905,2.238,6.528,5.349l0,0H504.448l0,0
				C504.448,414.622,506.844,412.227,509.798,412.227z"/>
		</defs>
		<clipPath id="SVGID_8_">
			<use xlink:href="#SVGID_7_"  overflow="visible"/>
		</clipPath>
		<g clip-path="url(#SVGID_8_)">
			<path fill="#424646" d="M661.399,412.227h92.533c3.173,0,5.905,2.238,6.528,5.349l0,0H656.049l0,0
				C656.049,414.622,658.444,412.227,661.399,412.227z"/>
		</g>
	</g>
</g>
<g>
	<g>
		<g>
			<rect x="608.183" y="541.208" fill="#00193B" width="16.62" height="72.964"/>
		</g>
		<g>
			<path fill="#00193B" d="M610.716,549.532h11.554c7.07,0,12.801-5.731,12.801-12.801v-27.828h-37.155v27.828
				C597.916,543.801,603.647,549.532,610.716,549.532z"/>
		</g>
		<g>
			<path fill="#002B4A" d="M557.499,508.903H692.58c6.924,0,12.538-5.613,12.538-12.538l0,0c0-6.924-5.613-12.538-12.538-12.538
				H557.499c-6.924,0-12.538,5.613-12.538,12.538l0,0C544.961,503.29,550.574,508.903,557.499,508.903z"/>
		</g>
		<g>
			<defs>
				<path id="SVGID_9_" d="M557.499,508.903H692.58c6.924,0,12.538-5.613,12.538-12.538l0,0c0-6.924-5.613-12.538-12.538-12.538
					H557.499c-6.924,0-12.538,5.613-12.538,12.538l0,0C544.961,503.29,550.574,508.903,557.499,508.903z"/>
			</defs>
			<clipPath id="SVGID_10_">
				<use xlink:href="#SVGID_9_"  overflow="visible"/>
			</clipPath>
			<g clip-path="url(#SVGID_10_)">
				<path fill="#003866" d="M653.118,508.903h135.081c6.924,0,12.538-5.613,12.538-12.538l0,0c0-6.924-5.613-12.538-12.538-12.538
					H653.118c-6.924,0-12.538,5.613-12.538,12.538l0,0C640.58,503.29,646.194,508.903,653.118,508.903z"/>
			</g>
		</g>
		<g>
			<g>
				<path fill="#002B4A" d="M546.024,298.677h72.882c10.82,0,19.788,8.385,20.511,19.178l10.142,150.469
					c0.565,8.389-6.089,15.504-14.499,15.504h-85.723c-7.596,0-13.884-5.901-14.362-13.479l-9.467-149.846
					C524.772,308.674,534.17,298.677,546.024,298.677z"/>
			</g>
		</g>
		<g>
			<defs>
				<path id="SVGID_11_" d="M546.024,298.677h72.882c10.82,0,19.788,8.385,20.511,19.178l10.142,150.469
					c0.565,8.389-6.089,15.504-14.499,15.504h-85.723c-7.596,0-13.884-5.901-14.362-13.479l-9.467-149.846
					C524.772,308.674,534.17,298.677,546.024,298.677z"/>
			</defs>
			<clipPath id="SVGID_12_">
				<use xlink:href="#SVGID_11_"  overflow="visible"/>
			</clipPath>
			<g clip-path="url(#SVGID_12_)">
				<g>
					<path fill="#003866" d="M637.051,298.677h72.882c10.82,0,19.788,8.385,20.511,19.178l10.142,150.469
						c0.565,8.389-6.089,15.504-14.499,15.504h-85.723c-7.596,0-13.883-5.901-14.362-13.479l-9.467-149.846
						C615.798,308.674,625.196,298.677,637.051,298.677z"/>
				</g>
			</g>
		</g>
	</g>
	<g>
		<path fill="#00193B" d="M570.078,628.116h92.83c3.851,0,6.972-3.121,6.972-6.972l0,0c0-3.851-3.122-6.972-6.972-6.972h-92.83
			c-3.851,0-6.972,3.122-6.972,6.972l0,0C563.106,624.995,566.228,628.116,570.078,628.116z"/>
	</g>
	<g>
		<path fill="#00193B" d="M590.735,628.116h51.516c3.391,0,6.139-2.749,6.139-6.139v-1.666c0-3.391-2.749-6.139-6.139-6.139h-51.516
			c-3.391,0-6.139,2.749-6.139,6.139v1.666C584.596,625.367,587.345,628.116,590.735,628.116z"/>
	</g>
	<g>
		<ellipse transform="matrix(1 -0.0015 0.0015 1 -0.9721 1.026)" cx="665.135" cy="631.175" rx="8.914" ry="8.911"/>
	</g>
	<g>
		<ellipse transform="matrix(1 -0.0015 0.0015 1 -0.9765 0.993)" cx="640.823" cy="631.175" rx="8.914" ry="8.911"/>
	</g>
	<g>
		<ellipse transform="matrix(1 -0.0016 0.0016 1 -0.999 0.9386)" cx="592.079" cy="631.175" rx="8.914" ry="8.911"/>
	</g>
	<g>
		<ellipse transform="matrix(1 -0.0015 0.0015 1 -0.9766 0.8799)" cx="567.767" cy="631.175" rx="8.914" ry="8.911"/>
	</g>
</g>
<g>
	<g>
		<g>
			<path fill="#1C9E7F" d="M947.78,355.013h-10.231c-4.663,0-9.258-4.435-9.258-9.098v-6.562c0-2.558,2.164-4.633,4.723-4.633
				s4.723,2.074,4.723,4.633v6.237c0,0.046,0.092-0.023,0.138-0.023h8.88c0.29-2.099,2.237-3.97,4.596-3.97
				c2.558,0,4.633,2.12,4.633,4.678C955.983,351.146,952.38,355.013,947.78,355.013z"/>
		</g>
		<g>
			<path fill="#1C9E7F" d="M958.902,374.955h10.231c4.663,0,9.014-4.25,9.014-8.912v-6.563c0-2.558-2.164-4.632-4.723-4.632
				s-4.723,2.074-4.723,4.632v6.238c0,0.046,0.153,0.316,0.107,0.316h-8.88c-0.29-2.099-2.237-4.139-4.596-4.139
				c-2.558,0-4.633,1.942-4.633,4.5C950.699,371.265,954.302,374.955,958.902,374.955z"/>
		</g>
		<g>
			<path fill="#1C9E7F" d="M962.927,380.465V335.33c0-5.65-4.58-10.23-10.23-10.23h-1.056c-5.65,0-10.23,4.581-10.23,10.23v45.135
				H962.927z"/>
		</g>
		<polygon fill="#0074B2" points="968.813,416.938 936.987,416.938 932.438,389.649 973.039,389.649 		"/>
		<rect x="929.341" y="380.727" fill="#005484" width="45.656" height="11.545"/>
	</g>
</g>
<g>
	<g>
		<path fill="#FFFFFF" d="M861.048,391.155h-5.197c-2.609,0-4.725,2.115-4.725,4.725v10.394c0,2.61,2.115,4.725,4.725,4.725h5.197
			c2.609,0,4.725-2.115,4.725-4.725V395.88C865.772,393.27,863.657,391.155,861.048,391.155z M862.465,404.353
			c0,1.576-1.399,2.866-2.974,2.866h-3.138c-1.575,0-2.865-1.29-2.865-2.866v-6.275c0-1.575,1.29-2.671,2.865-2.671h3.138
			c1.575,0,2.974,1.095,2.974,2.671V404.353z"/>
		<path fill="#FFFFFF" d="M828.157,385.388v27.403c0,2.61,2.115,4.725,4.725,4.725h18.426c2.609,0,4.725-2.115,4.725-4.725v-27.403
			H828.157z"/>
		<g>
			<g>
				<path fill="#FF6A45" d="M838.64,405.022c0,0.71,0.497,0.988,1.104,0.619l5.755-3.517c0.608-0.37,0.608-0.977,0-1.346
					l-5.755-3.516c-0.607-0.37-1.104-0.093-1.104,0.619V405.022z"/>
			</g>
		</g>
	</g>
</g>
</svg>
