<?xml version="1.0" encoding="utf-8"?>
<!-- Generator: Adobe Illustrator 22.1.0, SVG Export Plug-In . SVG Version: 6.00 Build 0)  -->
<svg version="1.1" id="Layer_1_1_" xmlns="http://www.w3.org/2000/svg" xmlns:xlink="http://www.w3.org/1999/xlink" x="0px" y="0px"
	 viewBox="0 0 2850 1800" enable-background="new 0 0 2850 1800" xml:space="preserve">
<polygon fill="#EFEFF0" points="0,0 0,847.852 0,1800 2850,1800 2850,847.852 2850,0 "/>
<polygon fill="#D1D2D3" points="0,1432.563 0,1605.637 0,1800 2850,1800 2850,1605.637 2850,1432.563 "/>
<polygon fill="#FFFFFF" points="0,1399.178 0,1414.904 0,1432.563 2850,1432.563 2850,1414.904 2850,1399.178 "/>
<g>
	<polyline fill="none" stroke="#3E4548" stroke-width="2.7894" stroke-miterlimit="10" points="1201.376,169.497 1456.926,85.748 
		1707.808,177.014 	"/>
	<path fill="#C9E5F5" d="M1128.18,654.327c-27.24,0-49.402-22.222-49.402-49.537V218.614c0-27.314,22.162-49.537,49.402-49.537
		h652.825c27.24,0,49.402,22.222,49.402,49.537V604.79c0,27.315-22.162,49.537-49.402,49.537H1128.18z"/>
	<path fill="#ACCCD9" d="M1814.992,604.79c0,18.822-15.217,34.08-33.988,34.08H1128.18c-18.77,0-33.988-15.258-33.988-34.08V218.614
		c0-18.822,15.217-34.08,33.988-34.08h652.825c18.771,0,33.988,15.258,33.988,34.08V604.79z"/>
	<g>
		
			<rect x="1129.267" y="217.657" transform="matrix(0.2009 -0.9796 0.9796 0.2009 671.7802 1453.5699)" fill="#C9E5F5" width="195.169" height="194.725"/>
		<g>
			<path fill="#575757" d="M1252.611,222.535c-0.743,3.621-6.138,7.752-8.281,7.313c-1.693-0.347-5.46-6.491-4.717-10.112
				c0.743-3.621,3.797-3.742,7.408-3.002C1250.632,217.475,1253.354,218.914,1252.611,222.535z"/>
			<path fill="#858585" d="M1252.773,221.908c-0.743,3.621-4.273,5.956-7.884,5.216c-3.611-0.741-5.936-4.277-5.193-7.898
				c0.743-3.621,4.274-5.956,7.884-5.215C1251.191,214.751,1253.516,218.287,1252.773,221.908z"/>
		</g>
	</g>
	<g>
		<polygon fill="#C9E5F5" points="1607.919,557.176 1389.611,598.785 1333.384,299.071 1551.692,257.462 		"/>
		<g>
			
				<rect x="1361.974" y="335.481" transform="matrix(0.9815 -0.1917 0.1917 0.9815 -37.9243 284.2427)" fill="#ACCCD9" width="176.866" height="5.374"/>
			
				<rect x="1364.182" y="346.782" transform="matrix(0.9815 -0.1917 0.1917 0.9815 -40.0493 284.8758)" fill="#ACCCD9" width="176.866" height="5.374"/>
			
				<rect x="1366.391" y="358.086" transform="matrix(0.9815 -0.1917 0.1917 0.9815 -42.1747 285.5086)" fill="#ACCCD9" width="176.866" height="5.374"/>
			
				<rect x="1368.599" y="369.387" transform="matrix(0.9815 -0.1917 0.1917 0.9815 -44.2998 286.1433)" fill="#ACCCD9" width="176.866" height="5.374"/>
			
				<rect x="1375.782" y="406.147" transform="matrix(0.9815 -0.1917 0.1917 0.9815 -51.2117 288.1994)" fill="#ACCCD9" width="176.866" height="5.374"/>
			
				<rect x="1377.99" y="417.449" transform="matrix(0.9815 -0.1917 0.1917 0.9815 -53.3368 288.8321)" fill="#ACCCD9" width="176.866" height="5.374"/>
			
				<rect x="1380.199" y="428.752" transform="matrix(0.9815 -0.1917 0.1917 0.9815 -55.4621 289.4647)" fill="#ACCCD9" width="176.866" height="5.374"/>
			
				<rect x="1391.868" y="481.462" transform="matrix(0.9815 -0.1917 0.1917 0.9815 -65.3481 292.68)" fill="#ACCCD9" width="176.866" height="5.374"/>
			
				<rect x="1394.076" y="492.764" transform="matrix(0.9815 -0.1917 0.1917 0.9815 -67.4731 293.3127)" fill="#ACCCD9" width="176.866" height="5.374"/>
			
				<rect x="1396.285" y="504.067" transform="matrix(0.9815 -0.1917 0.1917 0.9815 -69.5985 293.9456)" fill="#ACCCD9" width="176.866" height="5.374"/>
		</g>
		<g>
			<path fill="#575757" d="M1450.372,278.877c0.79,4.144-3.107,10.848-5.558,11.316c-1.938,0.369-8.585-4.477-9.375-8.621
				c-0.79-4.144,2.38-5.599,6.513-6.387C1446.084,274.398,1449.581,274.734,1450.372,278.877z"/>
			<path fill="#858585" d="M1450.27,278.145c0.79,4.144-1.92,8.142-6.052,8.93c-4.133,0.787-8.124-1.934-8.915-6.078
				c-0.79-4.144,1.92-8.142,6.052-8.93C1445.488,271.28,1449.48,274.001,1450.27,278.145z"/>
		</g>
	</g>
	<g>
		
			<rect x="1600.192" y="240.549" transform="matrix(0.2265 -0.974 0.974 0.2265 995.1655 1896.2625)" fill="#C9E5F5" width="182.648" height="162.003"/>
		<g>
			<path fill="#575757" d="M1717.775,235.603c-0.769,3.303-5.817,6.963-7.771,6.508c-1.545-0.359-4.853-6.085-4.084-9.388
				c0.769-3.303,3.574-3.341,6.868-2.575C1716.082,230.914,1718.543,232.299,1717.775,235.603z"/>
			<path fill="#858585" d="M1717.938,235.031c-0.769,3.303-4.063,5.361-7.358,4.594c-3.295-0.766-5.342-4.066-4.573-7.369
				c0.769-3.303,4.063-5.361,7.358-4.594C1716.659,228.428,1718.707,231.727,1717.938,235.031z"/>
		</g>
		<g>
			
				<rect x="1703.839" y="201.13" transform="matrix(0.2265 -0.974 0.974 0.2265 1066.1393 1862.3096)" fill="#ACCCD9" width="3.571" height="117.515"/>
			
				<rect x="1702.105" y="208.583" transform="matrix(0.2265 -0.974 0.974 0.2265 1057.5364 1866.3833)" fill="#ACCCD9" width="3.571" height="117.515"/>
			
				<rect x="1700.371" y="216.036" transform="matrix(0.2265 -0.974 0.974 0.2265 1048.9355 1870.4587)" fill="#ACCCD9" width="3.571" height="117.515"/>
		</g>
	</g>
	<g>
		<rect x="1653.389" y="463.515" fill="#C9E5F5" width="130.639" height="135.27"/>
		<g>
			<path fill="#575757" d="M1723.623,464.855c0,2.734-3.296,6.531-4.914,6.531c-1.279,0-4.924-3.893-4.924-6.628
				c0-2.735,2.196-3.277,4.924-3.277C1721.437,461.481,1723.623,462.12,1723.623,464.855z"/>
			<path fill="#858585" d="M1723.647,464.376c0,2.735-2.211,4.952-4.939,4.952c-2.727,0-4.939-2.217-4.939-4.952
				c0-2.735,2.211-4.953,4.939-4.953C1721.436,459.423,1723.647,461.641,1723.647,464.376z"/>
		</g>
		<g>
			<rect x="1671.138" y="492.572" fill="#ACCCD9" width="94.764" height="2.879"/>
			<rect x="1671.138" y="498.742" fill="#ACCCD9" width="94.764" height="2.879"/>
			<rect x="1671.138" y="504.913" fill="#ACCCD9" width="94.764" height="2.879"/>
			<rect x="1671.138" y="511.082" fill="#ACCCD9" width="94.764" height="2.879"/>
			<rect x="1671.138" y="531.15" fill="#ACCCD9" width="94.764" height="2.879"/>
			<rect x="1671.138" y="537.32" fill="#ACCCD9" width="94.764" height="2.879"/>
			<rect x="1671.138" y="543.49" fill="#ACCCD9" width="94.764" height="2.879"/>
		</g>
	</g>
	<g>
		<path fill="#B5DEEE" d="M1273.502,579.529c-9.741-18.152,8.324-74.3,8.324-74.3l-108.789-21.589l-15.552,77.961
			C1240.5,590.392,1273.502,579.529,1273.502,579.529z"/>
	</g>
	<g>
		<path fill="#B5DEEE" d="M1503.385,223.959c18.337-9.454,35.298-65.913,35.298-65.913l101.986,43.641l-31.415,73.011
			C1524.443,251.544,1503.385,223.959,1503.385,223.959z"/>
	</g>
</g>
<g>
	<rect x="540.83" y="621.093" fill="#B1BEC4" width="430.021" height="825.143"/>
	<rect x="533.262" y="621.093" fill="#D1DADE" width="445.157" height="36.112"/>
	<g>
		<rect x="549.634" y="674.547" fill="#D1DADE" width="412.413" height="128.896"/>
		<rect x="676.824" y="723.556" fill="#B1BEC4" width="167.411" height="15.439"/>
	</g>
	<g>
		<rect x="549.634" y="820.785" fill="#D1DADE" width="412.413" height="128.896"/>
		<rect x="676.824" y="869.794" fill="#B1BEC4" width="167.411" height="15.439"/>
	</g>
	<g>
		<rect x="549.634" y="967.023" fill="#D1DADE" width="412.413" height="128.896"/>
		<rect x="676.824" y="1016.032" fill="#B1BEC4" width="167.411" height="15.439"/>
	</g>
	<g>
		<rect x="549.634" y="1113.262" fill="#D1DADE" width="412.413" height="128.896"/>
		<rect x="676.824" y="1162.271" fill="#B1BEC4" width="167.411" height="15.439"/>
	</g>
	<g>
		<rect x="549.634" y="1259.5" fill="#D1DADE" width="412.413" height="128.896"/>
		<rect x="676.824" y="1308.509" fill="#B1BEC4" width="167.411" height="15.439"/>
	</g>
	<rect x="561.093" y="1446.236" fill="#939EA3" width="23.627" height="32.04"/>
	<rect x="925.338" y="1446.236" fill="#939EA3" width="23.627" height="32.04"/>
</g>
<g>
	<path fill="#F5F5F5" d="M2850.067,697.607h-128.16c-18.172,0-32.904,18.064-32.904,40.346v165.195
		c0,43.121,28.509,78.078,63.675,78.078h20v12.341h51.916v-12.341h20c1.845,0,3.667-0.118,5.473-0.306V697.607z"/>
	<path fill="#D1DADE" d="M2850.067,697.607h-123.643c-25.731,0-46.591,20.859-46.591,46.591v6.091
		c0,5.608,4.547,10.155,10.155,10.155h160.079V697.607z"/>
	<path fill="#D1DADE" d="M2850.067,782.871h-160.079c-5.608,0-10.155,4.546-10.155,10.155v42.527
		c0,5.608,4.546,10.155,10.155,10.155h160.079V782.871z"/>
	<path fill="#D1DADE" d="M2850.067,868.136h-160.079c-5.608,0-10.155,4.546-10.155,10.155v42.527
		c0,5.608,4.546,10.155,10.155,10.155h160.079V868.136z"/>
	<rect x="2745.337" y="993.568" fill="#C1CFD6" width="104.73" height="26.747"/>
	<path fill="#F5F5F5" d="M2850.067,1020.314h-180.861c-8.998,0-16.291,7.294-16.291,16.291v10.456h197.152V1020.314z"/>
	<rect x="2652.915" y="1047.061" fill="#F5F5F5" width="197.152" height="415.94"/>
	<path fill="#D1DADE" d="M2850.067,1091.745h-142.05c-10.501,0-19.013,8.51-19.013,19.008v224.886h161.063V1091.745z"/>
	<rect x="2689.004" y="1351.779" fill="#C1CFD6" width="161.063" height="16.141"/>
	<path fill="#C1CFD6" d="M2850.067,1382.985h-161.063v16.326c0,10.498,8.512,19.008,19.013,19.008h142.05V1382.985z"/>
	<rect x="2704.452" y="1178.534" fill="#C1CFD6" width="145.615" height="76.497"/>
	<path fill="#C1CFD6" d="M2629.767,1293.82h23.147v-177.97h-23.147c-14.291,0-25.875,11.585-25.875,25.875v126.219
		C2603.892,1282.235,2615.477,1293.82,2629.767,1293.82z"/>
</g>
<g>
	<g>
		<g>
			<g>
				<rect x="340.42" y="270" fill="#86B8BD" width="67.837" height="229.596"/>
			</g>
			<g>
				<rect x="356.853" y="292.622" fill="#FFFFFF" width="34.979" height="111.481"/>
			</g>
			<g>
				<g>
					
						<line fill="none" stroke="#FFFFFF" stroke-width="1.8381" stroke-miterlimit="10" x1="391.036" y1="430.928" x2="357.641" y2="430.928"/>
				</g>
				<g>
					
						<line fill="none" stroke="#FFFFFF" stroke-width="1.8381" stroke-miterlimit="10" x1="391.036" y1="454.352" x2="357.641" y2="454.352"/>
				</g>
			</g>
		</g>
		<g>
			<g>
				<rect x="38.498" y="270" fill="#C053AC" width="67.837" height="229.596"/>
			</g>
			<g>
				<rect x="54.931" y="292.622" fill="#FFFFFF" width="34.979" height="111.481"/>
			</g>
			<g>
				<g>
					
						<line fill="none" stroke="#FFFFFF" stroke-width="1.8381" stroke-miterlimit="10" x1="89.114" y1="430.928" x2="55.719" y2="430.928"/>
				</g>
				<g>
					
						<line fill="none" stroke="#FFFFFF" stroke-width="1.8381" stroke-miterlimit="10" x1="89.114" y1="454.352" x2="55.719" y2="454.352"/>
				</g>
			</g>
		</g>
		<g>
			<g>
				<rect x="257.765" y="270" fill="#31C899" width="67.829" height="229.596"/>
			</g>
			<g>
				<rect x="274.19" y="292.622" fill="#FFFFFF" width="34.971" height="111.481"/>
			</g>
			<g>
				<g>
					
						<line fill="none" stroke="#FFFFFF" stroke-width="1.8381" stroke-miterlimit="10" x1="308.381" y1="430.928" x2="274.986" y2="430.928"/>
				</g>
				<g>
					
						<line fill="none" stroke="#FFFFFF" stroke-width="1.8381" stroke-miterlimit="10" x1="308.381" y1="454.352" x2="274.986" y2="454.352"/>
				</g>
			</g>
		</g>
		<g>
			<g>
				<polygon fill="#31ACE6" points="141.132,486.851 207.795,499.596 249.371,274.354 182.708,261.609 				"/>
			</g>
			<g>
				<polygon fill="#FFFFFF" points="174.464,396.481 208.828,403.046 229.123,293.492 194.743,286.919 				"/>
			</g>
			<g>
				<g>
					
						<line fill="none" stroke="#FFFFFF" stroke-width="1.8381" stroke-miterlimit="10" x1="203.358" y1="428.873" x2="170.555" y2="422.605"/>
				</g>
				<g>
					
						<line fill="none" stroke="#FFFFFF" stroke-width="1.8381" stroke-miterlimit="10" x1="199.094" y1="451.896" x2="166.283" y2="445.632"/>
				</g>
			</g>
		</g>
	</g>
	<rect x="0.002" y="499.596" fill="#FFFFFF" width="446.786" height="23.191"/>
	<polygon fill="#D1D2D3" points="0.002,522.787 414.034,522.787 0.002,605.772 	"/>
</g>
<g>
	<rect x="0.002" y="804.533" fill="#FFFFFF" width="325.701" height="20.784"/>
	<polygon fill="#D1D2D3" points="0.002,903.503 0.002,846.35 0.002,825.566 280.374,825.566 	"/>
	<g>
		<g>
			<g>
				<rect x="218.919" y="596.44" fill="#31C899" width="63.359" height="207.203"/>
				<rect x="229.465" y="747.442" fill="#FFFFFF" width="42.26" height="28.757"/>
				<path fill="#FFFFFF" d="M263.347,726.52h-25.506c-4.626,0-8.377-3.812-8.377-8.514l0,0c0-4.702,3.75-8.514,8.377-8.514h25.506
					c4.626,0,8.377,3.812,8.377,8.514l0,0C271.724,722.708,267.973,726.52,263.347,726.52z"/>
				<path fill="#FFFFFF" d="M250.594,615.627c10.385,0,18.858,8.597,18.858,19.186c0,10.565-8.473,19.185-18.858,19.185
					c-10.405,0-18.856-8.62-18.856-19.185C231.739,624.225,240.189,615.627,250.594,615.627L250.594,615.627z M250.594,647.598"/>
			</g>
			<g>
				<rect x="142.05" y="596.44" fill="#86B8BD" width="63.386" height="207.203"/>
				<rect x="152.614" y="747.442" fill="#FFFFFF" width="42.26" height="28.757"/>
				<path fill="#FFFFFF" d="M186.496,726.52H160.99c-4.626,0-8.377-3.812-8.377-8.514l0,0c0-4.702,3.75-8.514,8.377-8.514h25.506
					c4.626,0,8.377,3.812,8.377,8.514l0,0C194.873,722.708,191.123,726.52,186.496,726.52z"/>
				<path fill="#FFFFFF" d="M154.7,634.813c0-10.606,8.528-19.186,19.023-19.186c10.517,0,19.027,8.58,19.027,19.186
					c0,10.585-8.51,19.185-19.027,19.185C163.228,653.998,154.7,645.399,154.7,634.813L154.7,634.813z M154.7,634.813"/>
			</g>
			<g>
				<polygon fill="#31ACE6" points="89.869,803.643 28.613,787.158 80.794,586.858 142.05,603.343 				"/>
				<polygon fill="#FFFFFF" points="86.579,774.368 45.727,763.374 52.969,735.575 93.821,746.569 				"/>
				<path fill="#FFFFFF" d="M90.991,724.164l-24.657-6.636c-4.472-1.204-7.138-5.864-5.954-10.41v0
					c1.184-4.546,5.77-7.255,10.242-6.051l24.657,6.636c4.472,1.204,7.138,5.864,5.954,10.41l0,0
					C100.049,722.659,95.464,725.368,90.991,724.164z"/>
				<path fill="#FFFFFF" d="M83.091,627.171c2.671-10.253,13.183-16.299,23.499-13.523c10.319,2.777,16.506,13.318,13.835,23.571
					c-2.666,10.233-13.179,16.299-23.498,13.522C86.611,647.965,80.425,637.404,83.091,627.171L83.091,627.171z M83.091,627.171"/>
			</g>
		</g>
	</g>
</g>
<ellipse opacity="0.1" cx="1326.965" cy="1616.282" rx="214.367" ry="18.133"/>
<g>
	<path fill="#158CBE" d="M1337.31,880.015c-43.006,11.552-69.651,53.768-61.076,96.768l94.196,233.549
		c5.161,25.425,28.921,42.99,55.206,40.81h0c28.039-2.324,49.074-26.204,47.4-53.811l-28.338-241.589
		C1441.496,902.708,1389.453,866.008,1337.31,880.015L1337.31,880.015z"/>
	<path fill="#158CBE" d="M1369.86,1187.595l-68.82,379.065l54.8,11.712l114.97-365.003c12.369-38.812-23.924-75.667-63.797-64.785
		l0,0C1388.174,1153.725,1373.836,1168.78,1369.86,1187.595z"/>
	<g>
		<polygon fill="#48566D" points="1353.422,1578.262 1308.119,1560.339 1296.694,1589.217 1323.719,1599.909 1326.965,1591.705 
			1340.501,1604.493 1371.771,1593.226 		"/>
		<path fill="#48566D" d="M1402.246,1595.649l-40.587-3.944l-26.478,19.498l4.796,1.876l71.723-0.526l-1.287-8.217
			C1409.733,1599.996,1406.481,1596.537,1402.246,1595.649z"/>
		<polygon fill="#202939" points="1344.685,1607.363 1335.181,1611.203 1339.977,1613.079 1411.7,1612.553 1410.811,1606.877 		"/>
		
			<rect x="1297.298" y="1586.05" transform="matrix(0.9299 0.3679 -0.3679 0.9299 677.0799 -371.0577)" fill="#202939" width="29.063" height="8.823"/>
		<polygon fill="#202939" points="1346.335,1602.746 1326.965,1591.705 1340.501,1604.493 1350.751,1604.493 		"/>
	</g>
	<g>
		<path fill="#158CBE" d="M1389.415,1032.483h-86.983c-30.899,0-55.947-25.048-55.947-55.947v-54.382h198.876v54.382
			C1445.362,1007.435,1420.313,1032.483,1389.415,1032.483z"/>
	</g>
	<path fill="#158CBE" d="M1316.943,876.717c-44.371,4.274-77.865,41.479-76.776,85.285l11.125,242.482
		c0.733,25.916,21.146,47.16,47.43,49.36h0c28.037,2.347,52.861-17.713,55.939-45.203l55.171-239.514
		C1415.757,916.321,1370.74,871.536,1316.943,876.717L1316.943,876.717z"/>
	<path fill="#158CBE" d="M1250.461,1203.847l25.578,391.044l49.389,2.014l29.243-388.785c3.763-40.503-39.621-69.007-76.262-50.106
		h0C1261.096,1166.944,1250.31,1184.632,1250.461,1203.847z"/>
	<g>
		<path fill="#48566D" d="M1324.367,1593.226l64.812,14.083c4.228,0.919,7.454,4.402,8.102,8.746l1.227,8.226h-71.725l-22.073-8.823
			v8.823h-29.063v-31.056"/>
		<rect x="1275.647" y="1615.459" fill="#202939" width="29.063" height="8.823"/>
		<polygon fill="#202939" points="1397.661,1618.6 1326.784,1618.6 1304.71,1615.459 1326.784,1624.282 1398.508,1624.282 		"/>
	</g>
	
		<line fill="none" stroke="#3EAED3" stroke-width="5.4311" stroke-linecap="round" stroke-linejoin="round" stroke-miterlimit="10" x1="1320.203" y1="947.323" x2="1268.392" y2="975.418"/>
	<path fill="none" stroke="#3EAED3" stroke-width="5.4311" stroke-miterlimit="10" d="M1404.472,922.154v80.224
		c0,5.314-4.383,9.622-9.79,9.622h-16.449c-5.407,0-9.79-4.308-9.79-9.622v-80.224"/>
	<path fill="#05B0B7" d="M1291.811,596.615h224.547c39.314,0,64.618,40.98,46.468,75.255l-117.495,221.876h-198.877V641.192
		C1246.454,616.573,1266.761,596.615,1291.811,596.615z"/>
	<polygon opacity="0.1" points="1246.454,760.153 1293.446,719.159 1246.454,893.746 	"/>
	<polygon fill="#FCC690" points="1461.054,596.615 1449.432,636.118 1375.905,596.615 1388.071,564.308 1473.22,564.308 	"/>
	
		<polyline fill="none" stroke="#007D82" stroke-width="2.7599" stroke-linecap="round" stroke-linejoin="round" stroke-miterlimit="10" points="
		1382.833,626.376 1421.784,666.221 1446.451,643.067 1473.822,665.151 1477.494,625.905 	"/>
	<rect x="1246.485" y="893.746" width="198.876" height="28.408"/>
	
		<rect x="1317.499" y="892.238" transform="matrix(-1 -4.821711e-11 4.821711e-11 -1 2644.2776 1814.8243)" fill="#3294B6" width="9.28" height="30.348"/>
	
		<rect x="1427.816" y="892.238" transform="matrix(-1 -4.821711e-11 4.821711e-11 -1 2864.9116 1814.8243)" fill="#3294B6" width="9.28" height="30.348"/>
	
		<rect x="1261.817" y="892.238" transform="matrix(-1 -4.821711e-11 4.821711e-11 -1 2532.9133 1814.8243)" fill="#3294B6" width="9.28" height="30.348"/>
	<rect x="1366.158" y="893.746" fill="#D2EBF2" width="42.382" height="28.408"/>
	<polygon fill="#D6A87A" points="1444.36,582.274 1462.081,593.887 1466.455,582.274 	"/>
	<path fill="#48566D" d="M1453.198,655.963l22.136,230.167l-18.739,28.961l-26.658-27.706l11.752-231.055
		c0.05-2.642,1.952-4.9,4.584-5.441l0,0C1449.663,650.194,1452.908,652.571,1453.198,655.963z"/>
	<path fill="#FCC690" d="M1474.338,413.279c20.639-3.83,43.156,11.555,43.156,33.605c0,33.195,0,79.386,0,109.286
		c0,19.082-10.991,26.103-31.17,26.103h-101.109V432.419L1474.338,413.279z"/>
	<path fill="#FFFFFF" d="M1480.23,540.389c1.009,8.116,7.812,14.398,16.071,14.398s15.062-6.281,16.071-14.398H1480.23z"/>
	<g>
		<path fill="#48566D" d="M1482.802,492.665c0,2.862-2.283,5.182-5.099,5.182c-2.816,0-5.099-2.32-5.099-5.182
			s2.283-5.182,5.099-5.182C1480.52,487.483,1482.802,489.803,1482.802,492.665z"/>
		<path fill="#48566D" d="M1517.471,492.665c0,2.862-2.283,5.182-5.099,5.182s-5.099-2.32-5.099-5.182s2.283-5.182,5.099-5.182
			S1517.471,489.803,1517.471,492.665z"/>
	</g>
	
		<line fill="none" stroke="#48566D" stroke-width="10.0065" stroke-linejoin="round" stroke-miterlimit="10" x1="1498.262" y1="468.805" x2="1520.732" y2="470.506"/>
	
		<line fill="none" stroke="#48566D" stroke-width="10.0065" stroke-linejoin="round" stroke-miterlimit="10" x1="1449.577" y1="470.876" x2="1482.256" y2="468.434"/>
	<g>
		<path fill="#48566D" d="M1497.018,522.084c-14.737,2.567-28.174,12.015-35.734,25.126c0.729,1.627,3.086,1.219,4.72,0.558
			c10.461-4.232,21.104-8,31.887-11.292c0.784-0.239,1.618-0.508,2.138-1.15c0.58-0.715,0.595-1.718,0.656-2.643
			C1501.329,523.075,1497.018,522.084,1497.018,522.084z"/>
	</g>
	<g>
		<path fill="#48566D" d="M1518.046,540.051c-1.44-10.541-4.857-15.026-16.699-17.967c0,0-1.753-0.378-1.752,10.6
			c0,0.926,0.037,1.928,0.313,2.643c0.249,0.643,0.647,0.911,1.022,1.15c5.152,3.291,11.566,6.831,16.564,11.063
			C1518.275,548.2,1518.525,541.977,1518.046,540.051z"/>
	</g>
	<g>
		<g>
			<g>
				<path opacity="0.27" fill="#9EDCF8" d="M1515.921,502.562c-8.154,0-13.788-1.278-14.564-2.16
					c-2.262-2.862-6.703-16.131-4.422-19.973c0.613-1.032,4.924-2.666,13.872-2.666c7.601,0,14.628,1.229,16.821,2.934
					c1.162,2.223,0.664,18.069-0.654,20.207c-0.509,0.631-3.971,1.658-11.051,1.658
					C1515.923,502.562,1515.923,502.562,1515.921,502.562z"/>
				<path fill="#48566D" d="M1528.396,479.521c-4.975-4.11-29.719-4.592-32.48,0.055c-1.715,2.883-0.662,8.998,0.987,14.162
					l1.342-0.143c-1.591-4.857-2.706-10.705-1.312-13.05c0.614-1.032,4.922-2.668,13.869-2.668c7.6,0,14.63,1.231,16.821,2.934
					c0.557,1.068,0.731,5.265,0.617,9.584l1.114-0.12C1529.753,484.219,1529.559,480.48,1528.396,479.521z"/>
				<path opacity="0.27" fill="#9EDCF8" d="M1464.202,503.314c10.164,0,17.188-1.28,18.155-2.16
					c2.817-2.864,8.355-16.133,5.508-19.975c-0.763-1.031-6.133-2.668-17.287-2.668c-9.473,0-18.233,1.23-20.966,2.938
					c-1.449,2.222-0.827,18.067,0.814,20.205c0.635,0.632,4.949,1.659,13.775,1.659C1464.2,503.314,1464.2,503.314,1464.202,503.314
					z"/>
				<path fill="none" stroke="#48566D" stroke-width="1.38" stroke-miterlimit="10" d="M1515.921,502.562
					c-8.154,0-13.788-1.278-14.564-2.16c-2.262-2.862-6.703-16.131-4.422-19.973c0.613-1.032,4.924-2.666,13.872-2.666
					c7.601,0,14.628,1.229,16.821,2.934c1.162,2.223,0.664,18.069-0.654,20.207c-0.509,0.631-3.971,1.658-11.051,1.658
					C1515.923,502.562,1515.923,502.562,1515.921,502.562z"/>
				<path fill="none" stroke="#48566D" stroke-width="1.38" stroke-miterlimit="10" d="M1464.202,503.314
					c10.164,0,17.188-1.28,18.155-2.16c2.817-2.864,8.355-16.133,5.508-19.975c-0.763-1.031-6.133-2.668-17.287-2.668
					c-9.473,0-18.233,1.23-20.966,2.938c-1.449,2.222-0.827,18.067,0.814,20.205c0.635,0.632,4.949,1.659,13.775,1.659
					C1464.2,503.314,1464.2,503.314,1464.202,503.314z"/>
				<path fill="#48566D" d="M1448.655,480.271c6.2-4.112,37.04-4.59,40.484,0.055c2.136,2.881,0.823,8.998-1.233,14.162
					l-1.673-0.144c1.987-4.857,3.374-10.705,1.638-13.048c-0.766-1.034-6.136-2.669-17.287-2.669
					c-9.473,0-18.236,1.232-20.968,2.934c-0.694,1.068-0.91,5.267-0.766,9.586l-1.393-0.121
					C1446.962,484.969,1447.203,481.232,1448.655,480.271z"/>
				<path fill="#48566D" d="M1444.046,488.117c0,0.783,0.623,1.413,1.391,1.413h1.97c0.77,0,1.395-0.631,1.395-1.413l0,0
					c0-0.783-0.625-1.417-1.395-1.417h-1.97C1444.669,486.7,1444.046,487.335,1444.046,488.117L1444.046,488.117z"/>
				<path fill="#48566D" d="M1492.994,482.156h-0.079c-1.172,0-2.41,0.198-3.38,0.783v1.738c0.917-0.513,2.208-0.785,3.38-0.785
					h0.079c1.068,0,2.109,0.244,3.093,0.72v-1.738C1495.191,482.452,1494.06,482.156,1492.994,482.156z"/>
			</g>
		</g>
	</g>
	<g>
		<path fill="#FCC690" d="M1494.1,485.618c1.104,9.568,7.613,14.461,12.876,19.562c2.221,2.153,4.541,4.179,6.55,6.612
			c1.204,1.458,2.35,3.244,2.337,5.295c-0.01,1.652-0.801,3.195-1.862,4.25c-1.061,1.055-2.37,1.684-3.685,2.181
			c-7.774,2.938-16.594,1.613-23.523-3.533"/>
		<path fill="#E09E5E" d="M1494.1,485.618c0.676,2.986,1.784,5.812,3.485,8.248c1.64,2.473,3.765,4.567,5.975,6.597
			c2.269,1.979,4.529,4.08,6.778,6.119c1.135,1.034,2.246,2.13,3.313,3.296c1.04,1.158,2.138,2.422,2.885,4.052
			c0.364,0.813,0.615,1.724,0.675,2.673c0.057,0.951-0.096,1.918-0.415,2.789c-0.62,1.744-1.929,3.217-3.433,4.104
			c-1.514,0.909-3.039,1.356-4.577,1.792c-1.541,0.442-3.138,0.641-4.725,0.741c-6.372,0.383-12.732-1.93-17.269-6.043
			c5.226,3.172,11.288,4.617,17.082,3.897c1.44-0.204,2.87-0.474,4.247-0.92c1.367-0.446,2.775-0.952,3.847-1.677
			c1.087-0.707,1.895-1.656,2.288-2.801c0.398-1.127,0.295-2.274-0.238-3.429c-0.505-1.164-1.395-2.268-2.372-3.378
			c-0.967-1.103-2.035-2.141-3.105-3.208l-3.24-3.22c-1.081-1.056-2.169-2.134-3.237-3.248c-2.141-2.217-4.181-4.656-5.638-7.446
			C1494.956,491.776,1494.169,488.674,1494.1,485.618z"/>
	</g>
	<g>
		<path fill="#48566D" d="M1385.215,534.836c-12.342-20.867-12.779-77.448-12.263-101.79c0.123-5.818,1.215-12.594,6.25-15.364
			c4.977-2.738,11.05-0.074,16.074,2.574c-1.597-5.109-3.142-10.903-0.617-15.609c2.745-5.115,9.155-6.399,14.703-7.863
			c39.743-10.491,74.957-5.345,115.36,4.849c1.97,0.497,4.219,1.297,4.865,3.253c0.381,1.155-0.074,2.38-0.278,3.581
			c-7.658,45.149-85.055,43.013-103.802,39.363v48.984h-13.162c0,0-9.047,29.031-7.175,38.022"/>
	</g>
	<path fill="#FCC690" d="M1414.611,482.248c-0.22-0.006-0.433-0.034-0.655-0.034c-13.352,0-24.177,11.002-24.177,24.573
		c0,13.571,10.824,24.573,24.177,24.573c0.221,0,0.435-0.028,0.655-0.034"/>
</g>
<g>
	<ellipse fill="#62BEDE" cx="2588.667" cy="167.353" rx="118.23" ry="120.166"/>
	<ellipse fill="#FFFFFF" cx="2588.667" cy="167.353" rx="108.037" ry="109.806"/>
	
		<polyline fill="none" stroke="#62BEDE" stroke-width="4.4151" stroke-linecap="round" stroke-linejoin="round" stroke-miterlimit="10" points="
		2593.046,116.171 2593.046,167.353 2667.487,167.353 	"/>
</g>
<g>
	
		<line fill="none" stroke="#231F20" stroke-width="3.676" stroke-linejoin="round" stroke-miterlimit="10" x1="2093.77" y1="0" x2="2093.77" y2="139.061"/>
	<rect x="2077.76" y="138.081" fill="#206C85" width="32.02" height="29.272"/>
	<g>
		<ellipse fill="#FFE274" cx="2091.758" cy="270.975" rx="34.553" ry="35.118"/>
		<path fill="#3294B6" d="M2216.718,284.027c-0.187-68.857-55.157-124.619-122.948-124.619
			c-67.791,0-122.761,55.763-122.948,124.619H2216.718z"/>
		
			<line fill="none" stroke="#231F20" stroke-width="3.6762" stroke-linecap="round" stroke-linejoin="round" stroke-miterlimit="10" x1="1986.337" y1="244.858" x2="2065.952" y2="244.858"/>
	</g>
</g>
<g>
	
		<line fill="none" stroke="#231F20" stroke-width="3.676" stroke-linejoin="round" stroke-miterlimit="10" x1="823.466" y1="0" x2="823.466" y2="139.061"/>
	<rect x="807.456" y="138.081" fill="#206C85" width="32.02" height="29.272"/>
	<g>
		<ellipse fill="#FFE274" cx="821.454" cy="270.975" rx="34.553" ry="35.118"/>
		<path fill="#3294B6" d="M946.414,284.027c-0.187-68.857-55.157-124.619-122.948-124.619S700.705,215.17,700.518,284.027H946.414z"
			/>
		
			<line fill="none" stroke="#231F20" stroke-width="3.6762" stroke-linecap="round" stroke-linejoin="round" stroke-miterlimit="10" x1="716.033" y1="244.858" x2="795.648" y2="244.858"/>
	</g>
</g>
<g>
	<g>
		
			<line fill="none" stroke="#BDBDBD" stroke-width="4.98" stroke-linecap="round" stroke-linejoin="round" stroke-miterlimit="10" x1="219.891" y1="1767.297" x2="257.241" y2="1767.297"/>
		
			<line fill="none" stroke="#BDBDBD" stroke-width="4.98" stroke-linecap="round" stroke-linejoin="round" stroke-miterlimit="10" x1="448.53" y1="1626.437" x2="604.033" y2="1626.437"/>
		
			<line fill="none" stroke="#BDBDBD" stroke-width="4.98" stroke-linecap="round" stroke-linejoin="round" stroke-miterlimit="10" x1="2251.323" y1="1626.437" x2="2406.825" y2="1626.437"/>
		
			<line fill="none" stroke="#BDBDBD" stroke-width="4.98" stroke-linecap="round" stroke-linejoin="round" stroke-miterlimit="10" x1="321.268" y1="1767.297" x2="547.285" y2="1767.297"/>
		
			<line fill="none" stroke="#BDBDBD" stroke-width="4.98" stroke-linecap="round" stroke-linejoin="round" stroke-miterlimit="10" x1="2341.848" y1="1767.297" x2="2516.83" y2="1767.297"/>
	</g>
	<g>
		<polygon fill="#3294B6" points="526.281,1626.437 547.624,1626.437 650.922,1051.925 629.579,1051.925 		"/>
		<polygon fill="#3294B6" points="2306.257,1626.437 2284.915,1626.437 2181.617,1051.925 2202.959,1051.925 		"/>
		<polygon opacity="0.81" fill="#E0F6FF" points="2373.233,1212.202 435.407,1212.202 548.331,1019.091 2260.19,1019.091 		"/>
		<polygon fill="#3294B6" points="433.315,1767.297 454.658,1767.297 551.432,1224.875 530.09,1224.875 		"/>
		<polygon fill="#3294B6" points="2402.115,1767.297 2380.772,1767.297 2284.915,1224.875 2306.257,1224.875 		"/>
		<rect x="435.407" y="1212.202" fill="#CCE3ED" width="1937.827" height="12.673"/>
	</g>
</g>
<g>
	<polygon fill="#85949D" points="1853.172,1057.411 2097.991,1056.685 2214.032,1127.726 1980.108,1127.726 	"/>
	<path fill="#1D2930" d="M2228.982,1147.28v-0.611c0-10.462-8.613-18.942-19.238-18.942h-229.636v19.553H2228.982z"/>
	<path fill="#85949D" d="M1980.108,1147.28v-19.553l-126.936-70.315v10.034c0,3.906,4.072,6.069,9.987,10.096L1980.108,1147.28z"/>
	<path fill="#1D2930" d="M1896.948,956.161L1896.948,956.161l64.542,171.566h18.618l-56.311-153.607
		C1919.179,963.221,1908.623,956.161,1896.948,956.161z"/>
	<g>
		<defs>
			<path id="XMLID_3_" d="M1914.441,949.053l-90.143-67.557c-2.508-1.093-5.249-1.544-7.962-1.242
				c-6.83,0.76-17.159,3.094-20.745,7.912l74.454,162.138l109.618,76.208L1914.441,949.053z"/>
		</defs>
		<use xlink:href="#XMLID_3_"  overflow="visible" fill="#1D2930"/>
		<clipPath id="XMLID_6_">
			<use xlink:href="#XMLID_3_"  overflow="visible"/>
		</clipPath>
	</g>
	<g>
		<defs>
			<path id="XMLID_1_" d="M1897.569,956.161l-96.47-70.315c-5.432,0-9.192,5.515-7.285,10.684l59.359,160.881l108.318,70.315
				L1897.569,956.161z"/>
		</defs>
		<use xlink:href="#XMLID_1_"  overflow="visible" fill="#D1D2D3"/>
		<clipPath id="XMLID_7_">
			<use xlink:href="#XMLID_1_"  overflow="visible"/>
		</clipPath>
	</g>
	
		<ellipse transform="matrix(0.9465 -0.3226 0.3226 0.9465 -225.2039 654.7112)" fill="#FFFFFF" cx="1862.634" cy="1006.786" rx="7.553" ry="14.722"/>
</g>
<g>
	<polygon fill="#85949D" points="799.486,1057.411 594.788,1056.685 537.235,1127.726 754.099,1127.726 	"/>
	<path fill="#1D2930" d="M532.749,1147.28v-0.611c0-10.462,4.485-18.942,4.485-18.942h216.864v19.553H532.749z"/>
	<polygon fill="#85949D" points="754.099,1147.28 754.099,1127.726 800.68,1056.685 800.68,1074.962 	"/>
	<g>
		<defs>
			<path id="XMLID_4_" d="M813.147,949.053l33.208-67.557c2.508-1.093,5.249-1.544,7.962-1.242c6.83,0.76,1.27,10.058,4.856,14.876
				l-105.074,232.596h-6.62L813.147,949.053z"/>
		</defs>
		<use xlink:href="#XMLID_4_"  overflow="visible" fill="#1D2930"/>
		<clipPath id="XMLID_8_">
			<use xlink:href="#XMLID_4_"  overflow="visible"/>
		</clipPath>
	</g>
	<g>
		<defs>
			<path id="XMLID_2_" d="M820.046,951.525l34.982-71.251c5.432,0,6.052,9.686,4.144,14.856l-58.464,162.281l-46.61,70.315
				L820.046,951.525z"/>
		</defs>
		<use xlink:href="#XMLID_2_"  overflow="visible" fill="#D1D2D3"/>
		<clipPath id="XMLID_9_">
			<use xlink:href="#XMLID_2_"  overflow="visible"/>
		</clipPath>
	</g>
</g>
<g>
	<rect x="103.844" y="1441.412" fill="#3294B6" width="189.546" height="52.378"/>
	<g>
		<g>
			<path fill="#6BD49C" d="M175.065,1411.017c-28.675-31.452-80.85-93.321-102.075-130.564l41.558-10.959
				c-17.212-1.984-50.408-9.362-50.252-8.427c-4.212-12.137-7.553-24.599-9.984-37.247c0,0,16.566-6.35,23.694-8.295
				c0,0-20.11-9.524-27.199-12.825c-4.794-16.348-8.336-33.088-10.584-50.013l0.541,0.959
				c22.974,20.426,84.477,30.077,132.968,230.281L175.065,1411.017z"/>
		</g>
		
			<path fill="none" stroke="#5DB888" stroke-width="2.86" stroke-linecap="round" stroke-linejoin="round" stroke-miterlimit="10" d="
			M46.326,1159.894c42.453,29.158,98.979,85.908,133.673,281.517"/>
	</g>
	<g>
		<path fill="#6BD49C" d="M202.154,1208.927c11.781-24.994,36.545-79.809,43.92-106.549c4.2-15.228,7.685-31.174,5.205-46.801
			l-0.234-4.004c-4.582-2.232-9.386-3.979-14.311-5.203l1.92-4.279c7.634-2.369,15.269-4.738,22.903-7.107l-1.792,2.943
			c13.746-22.374,24.247-46.878,31.042-72.439l-2.463-2.258c-7.633-0.914-15.321-1.335-23.004-1.261l5.837-3.197
			c5.536-5.913,14.925-7.54,18.888-14.679c1.927-3.472,2.173-7.639,2.372-11.637c0.567-11.372,1.133-22.745,1.7-34.117l-0.941,0.106
			c-52.045,45.494-94.854,120.833-110.976,189.32L202.154,1208.927z"/>
	</g>
	<g>
		<path fill="#6BD49C" d="M200.951,1214.683c21.538-51.677,46.595-111.424,87.93-148.635c-0.259,27.234-7.306,93.847-7.306,93.847
			l-18.831,6.646l15.219,14.619l-40.51,126.72l-6.822,15.162l-14.285,6.427l4.045,11.945c0,0-31.472,24.189-35.668,41.251
			c-2.063-50.013,2.26-100.294,12.828-149.185L200.951,1214.683z"/>
	</g>
	
		<path fill="none" stroke="#5DB888" stroke-width="2.86" stroke-linecap="round" stroke-linejoin="round" stroke-miterlimit="10" d="
		M277.964,1085.759c-36.665,81.162-54.956,166.916-69.811,253.593c-5.73,33.434-11.481,67.146-10.473,101.069"/>
	<g>
		<path fill="#73E4A8" d="M183.141,1370.143c-47.365-53.036-77.35-122.395-83.989-194.274c13.389-1.527,27.095,0.004,39.86,4.454
			c-8.231-16.659-30.393-22.879-36.704-40.411c-2.267-6.297-2.102-13.215-1.836-19.93c0.63-15.926,1.66-31.835,3.088-47.705
			c12.198,3.921,24.396,7.841,36.594,11.762c-12.648-4.38-21.665-16.549-25.772-29.676c-4.107-13.127-4-27.231-3.351-41.013
			c1.051-22.33,3.417-44.594,7.08-66.627l0.106,1.499c44.47,51.087,66.573,119.032,78.734,186.62
			c14.655,81.445,10.76,162.159-11.859,241.63L183.141,1370.143z"/>
	</g>
	<path fill="none" stroke="#5DB888" stroke-width="2.86" stroke-miterlimit="10" d="M129.249,992.096
		c26.242,84.312,42.72,171.872,48.97,260.211c1.48,20.922,2.389,41.881,3.298,62.838c1.86,42.891,3.72,85.783,5.58,128.674"/>
	<g>
		<path fill="#73E4A8" d="M360.496,1077.626c-20.208,15.285-83.901,82.268-83.901,82.268l10.483,18.679l-17.637-3.21l-21.37,99.695
			c0,0-9.451-20.967-11.591-32.282c-9.631,43.643-12.473,88.881-8.385,133.446l1.773,0.249c32.32-24.345,77.06-93.579,77.06-93.579
			l-26.795-15.493l38.282-15.023l29.237-76.498l-16.437-5.023l26.961-21.394L360.496,1077.626z"/>
	</g>
	
		<path fill="none" stroke="#5DB888" stroke-width="2.86" stroke-linecap="round" stroke-linejoin="round" stroke-miterlimit="10" d="
		M352.373,1092.871c-65.112,108.474-116.252,228.438-141.474,352.893"/>
	<polygon fill="#3294B6" points="119.27,1492.964 130.422,1604.309 263.259,1604.309 277.964,1492.964 277.076,1492.964 	"/>
	<polygon fill="#2B7F9C" points="119.27,1492.964 121.604,1516.269 277.076,1492.964 	"/>
</g>
<g>
	<path fill="#05B0B7" d="M1573.815,869.179l-5.315-226.206c-0.028-1.286-0.118-2.645-0.277-3.949
		c-2.742-22.486-24.34-38.624-48.241-36.044s-41.053,22.9-38.311,45.386l32.586,233.918L1573.815,869.179z"/>
	<polygon fill="#FCC690" points="1540.682,1053.294 1514.257,882.285 1573.815,869.179 1588.212,1066.114 	"/>
	<polygon fill="#048E94" points="1578.564,878.93 1508.486,883.581 1505.973,860.98 1555.722,852.525 1562.902,858.819 
		1578.99,848.528 	"/>
	<path fill="#FCC690" d="M1587.941,1063.172h56.232c4.119,0.013,7.469-3.118,7.483-6.993v0c0.014-3.875-3.314-7.027-7.432-7.04
		l-58.045-8.854L1587.941,1063.172z"/>
	<path fill="#FCC690" d="M1548.438,1064.611l49.575,9.526c4.021,0.773,7.754-2.3,7.768-6.394l0,0
		c0.011-3.143-2.216-5.848-5.302-6.441l-60.457-11.617l-0.017,4.682C1539.987,1059.365,1543.529,1063.668,1548.438,1064.611z"/>
	
		<line fill="none" stroke="#000000" stroke-width="15.9413" stroke-miterlimit="10" x1="1537.576" y1="1030.001" x2="1586.391" y2="1024.941"/>
	<ellipse fill="#FFFFFF" cx="1569.906" cy="1027.449" rx="14.588" ry="13.724"/>
</g>
<g>
	<path fill="#05B0B7" d="M1151.775,862.428l91.589-233.306c0.474-1.206,1.032-2.463,1.636-3.645
		c10.419-20.401,36.444-28.992,58.128-19.19c21.684,9.803,30.816,34.288,20.397,54.688l-120.04,232.189L1151.775,862.428z"/>
	<polygon fill="#FCC690" points="1116.132,1058.86 1203.485,893.165 1151.776,862.429 1063.685,1061.971 	"/>
	<polygon fill="#048E94" points="1143.894,870.178 1208.487,896.167 1218.73,875.588 1174.669,852.269 1165.693,856.003 
		1154.075,841.322 	"/>
	<path fill="#FCC690" d="M1063.176,1063.172h-47.695c-4.119,0.013-7.469-3.118-7.483-6.993v0c-0.014-3.875,3.314-7.027,7.432-7.04
		l57.814-8.819L1063.176,1063.172z"/>
	<path fill="#FCC690" d="M1111.461,1064.611l-49.575,9.526c-4.021,0.773-7.754-2.3-7.768-6.394l0,0
		c-0.011-3.143,2.216-5.848,5.302-6.441l60.457-11.617l0.017,4.682C1119.912,1059.365,1116.37,1063.668,1111.461,1064.611z"/>
</g>
<g>
	<path fill="#87D6F8" d="M2089.032,1062.412h-4.722c-12.645,0-22.896,10.251-22.896,22.896v14.032c0,3.418,2.771,6.188,6.188,6.188
		h38.137c3.418,0,6.188-2.771,6.188-6.188v-14.032C2111.928,1072.663,2101.678,1062.412,2089.032,1062.412z"/>
	<polyline fill="#158CBE" points="2078.705,1063.88 2078.705,1055.174 2094.229,1055.174 2094.229,1063.88 	"/>
	<path fill="#FFFFFF" d="M2111.928,1095.709v-10.214c0-12.748-10.168-23.083-22.711-23.083h-5.093
		c-12.543,0-22.71,10.335-22.71,23.083v10.214H2111.928z"/>
	<polyline fill="#FFFFFF" points="2078.705,1063.88 2078.705,1055.174 2094.229,1055.174 2094.229,1063.88 	"/>
	<path fill="#158CBE" d="M2097.02,1055.174h-21.038c-0.649,0-1.176-0.526-1.176-1.176v-10.024c0-0.649,0.526-1.176,1.176-1.176
		h21.038c0.649,0,1.176,0.526,1.176,1.176v10.024C2098.196,1054.647,2097.67,1055.174,2097.02,1055.174z"/>
	<path fill="#87D6F8" d="M2107.494,1133.184h-41.646c-2.449,0-4.434-1.985-4.434-4.434v-18.787c0-2.449,1.985-4.434,4.434-4.434
		h41.646c2.449,0,4.434,1.985,4.434,4.434v18.787C2111.928,1131.198,2109.943,1133.184,2107.494,1133.184z"/>
	<path fill="#87D6F8" d="M2107.494,1160.839h-41.646c-2.449,0-4.434-1.985-4.434-4.434v-18.787c0-2.449,1.985-4.434,4.434-4.434
		h41.646c2.449,0,4.434,1.985,4.434,4.434v18.787C2111.928,1158.854,2109.943,1160.839,2107.494,1160.839z"/>
	<path fill="#87D6F8" d="M2107.494,1188.494h-41.646c-2.449,0-4.434-1.985-4.434-4.434v-18.787c0-2.449,1.985-4.434,4.434-4.434
		h41.646c2.449,0,4.434,1.985,4.434,4.434v18.787C2111.928,1186.509,2109.943,1188.494,2107.494,1188.494z"/>
	
		<line fill="none" stroke="#168CBE" stroke-width="2.0784" stroke-linecap="round" stroke-linejoin="round" stroke-miterlimit="10" x1="2074.057" y1="1105.528" x2="2100.397" y2="1105.528"/>
	
		<line fill="none" stroke="#168CBE" stroke-width="2.0784" stroke-linecap="round" stroke-linejoin="round" stroke-miterlimit="10" x1="2074.057" y1="1133.184" x2="2100.397" y2="1133.184"/>
	
		<line fill="none" stroke="#168CBE" stroke-width="2.0784" stroke-linecap="round" stroke-linejoin="round" stroke-miterlimit="10" x1="2074.057" y1="1160.839" x2="2100.397" y2="1160.839"/>
</g>
<g>
	<path fill="#87D6F8" d="M980.78,1021.023h-4.722c-12.645,0-22.896,10.251-22.896,22.896v14.032c0,3.418,2.771,6.188,6.188,6.188
		h38.137c3.418,0,6.188-2.771,6.188-6.188v-14.032C1003.676,1031.273,993.425,1021.023,980.78,1021.023z"/>
	<polyline fill="#158CBE" points="970.452,1022.49 970.452,1013.784 985.977,1013.784 985.977,1022.49 	"/>
	<path fill="#FFFFFF" d="M998.288,1029.186c-4.166-4.992-10.379-8.163-17.323-8.163h-5.093c-6.945,0-13.157,3.172-17.323,8.163
		H998.288z"/>
	<polyline fill="#FFFFFF" points="970.452,1022.49 970.452,1013.784 985.977,1013.784 985.977,1022.49 	"/>
	<path fill="#158CBE" d="M988.768,1013.784H967.73c-0.649,0-1.176-0.526-1.176-1.176v-10.023c0-0.649,0.526-1.176,1.176-1.176
		h21.038c0.649,0,1.176,0.526,1.176,1.176v10.023C989.943,1013.258,989.417,1013.784,988.768,1013.784z"/>
	<path fill="#87D6F8" d="M999.242,1091.794h-41.646c-2.449,0-4.434-1.985-4.434-4.434v-18.787c0-2.449,1.985-4.434,4.434-4.434
		h41.646c2.449,0,4.434,1.985,4.434,4.434v18.787C1003.676,1089.809,1001.691,1091.794,999.242,1091.794z"/>
	<path fill="#87D6F8" d="M999.242,1119.449h-41.646c-2.449,0-4.434-1.985-4.434-4.434v-18.787c0-2.449,1.985-4.434,4.434-4.434
		h41.646c2.449,0,4.434,1.985,4.434,4.434v18.787C1003.676,1117.464,1001.691,1119.449,999.242,1119.449z"/>
	<path fill="#87D6F8" d="M999.242,1147.105h-41.646c-2.449,0-4.434-1.985-4.434-4.434v-18.787c0-2.449,1.985-4.434,4.434-4.434
		h41.646c2.449,0,4.434,1.985,4.434,4.434v18.787C1003.676,1145.119,1001.691,1147.105,999.242,1147.105z"/>
	
		<line fill="none" stroke="#168CBE" stroke-width="2.0784" stroke-linecap="round" stroke-linejoin="round" stroke-miterlimit="10" x1="965.805" y1="1064.139" x2="992.145" y2="1064.139"/>
	
		<line fill="none" stroke="#168CBE" stroke-width="2.0784" stroke-linecap="round" stroke-linejoin="round" stroke-miterlimit="10" x1="965.805" y1="1091.794" x2="992.145" y2="1091.794"/>
	
		<line fill="none" stroke="#168CBE" stroke-width="2.0784" stroke-linecap="round" stroke-linejoin="round" stroke-miterlimit="10" x1="965.805" y1="1119.449" x2="992.145" y2="1119.449"/>
</g>
<g>
	<g>
		<ellipse opacity="0.1" cx="2484.872" cy="1645.379" rx="129.733" ry="18.322"/>
		<g>
			<g>
				<g>
					<path fill="#FCC690" d="M2252.915,738.836l-6.128-21.967l-27.507-17.993l-2.578,5.168l-6.344-3.369l-6.711,7.235l-2.852,30.273
						c-0.278,2.955,1.423,5.741,4.18,6.842l25.595,12.095l8.976,7.936l20.272-19.892L2252.915,738.836z"/>
				</g>
				<path fill="#FCC690" d="M2204.987,710.316l-15.25-12.897c-3.405-2.879-4.184-7.82-1.83-11.607l0,0
					c0.865-1.392,2.736-1.744,4.047-0.762l25.823,19.328"/>
			</g>
			<g>
				<path fill="#FCC690" d="M2216.454,703.719c-0.464,1.815-0.928,3.631-1.392,5.446"/>
			</g>
			<g>
				<path fill="#E09E5E" d="M2238.462,744.247c-4.24-2.42-7.997-5.675-10.996-9.528c-0.75-0.972-1.468-2.025-1.906-3.262
					c-0.221-0.615-0.349-1.283-0.349-1.963c-0.006-0.684,0.155-1.359,0.368-1.957c0.913-2.311,1.951-4.448,3.071-6.608l0.165,0.751
					c-2.682-2.067-5.292-4.233-7.782-6.537c-1.246-1.151-2.462-2.336-3.636-3.563c-0.59-0.616-1.164-1.225-1.738-1.879
					c-0.567-0.658-1.125-1.398-1.469-2.288l-0.001-0.003l-0.02-0.049c-0.065-0.165-0.034-0.345,0.066-0.476l2.55-3.336
					c0.05-0.065,0.143-0.078,0.208-0.028c0.057,0.043,0.073,0.119,0.044,0.181l-1.781,3.802l0.046-0.525l0.001,0.002
					c0.539,1.374,1.832,2.544,2.955,3.771c1.156,1.208,2.356,2.377,3.586,3.513c2.458,2.276,5.041,4.419,7.699,6.467
					c0.233,0.18,0.296,0.499,0.165,0.751c-1.093,2.101-2.149,4.295-3.002,6.45c-0.87,2.072,0.265,4.244,1.705,6.052
					c2.9,3.727,6.541,6.882,10.644,9.223c0.287,0.164,0.387,0.529,0.223,0.815S2238.749,744.411,2238.462,744.247L2238.462,744.247z
					"/>
			</g>
			<g>
				<g>
					<path fill="#E09E5E" d="M2203.472,709.525c5.772,4.075,12.102,7.482,18.127,11.173c1.259,0.771,2.517,1.542,3.774,2.315
						c0.195,0.12,0.836,0.382,0.949,0.585c0.122,0.22-0.959,2.67-1.14,3.21c-2.641,7.901-5.261,15.737-12.379,20.716
						c-0.346,0.242-0.047,0.778,0.335,0.573c6.868-3.693,9.717-11.611,12.026-18.58c0.365-1.101,0.725-2.205,1.087-3.307
						c0.176-0.536,0.95-2.028,0.822-2.565c-0.101-0.423-0.038-0.4-0.286-0.709c-0.554-0.689-2.054-1.232-2.789-1.671
						c-4.07-2.433-8.144-4.86-12.225-7.273c-2.584-1.528-5.361-3.678-8.262-4.561
						C2203.453,709.413,2203.427,709.493,2203.472,709.525L2203.472,709.525z"/>
				</g>
			</g>
		</g>
	</g>
	<path fill="#00466C" d="M2442.479,671.865h159.208l0.145-181.262c0-43.042-34.893-77.935-77.935-77.935h-3.482
		c-43.042,0-77.935,34.893-77.935,77.935V671.865z"/>
	
		<line fill="none" stroke="#2D86A5" stroke-width="56.229" stroke-linecap="round" stroke-miterlimit="10" x1="2453.76" y1="693.145" x2="2394.925" y2="856.045"/>
	<g>
		<polygon fill="#FDC88B" points="2366.531,881.8 2236.296,762.192 2254.587,740.841 2392.765,851.177 		"/>
	</g>
	<path fill="#1D667E" d="M2415.723,876.254l-41.373-57.545l-8.746,10.746l0.083,55.192
		C2365.687,884.648,2395.05,894.83,2415.723,876.254z"/>
	<path fill="#3294B6" d="M2455.559,665.076l141.044,0.036c15.809,0.14,26.526,17.567,20.245,32.075l-82.764,191.156h-121.968
		l-3.759-102.015c0,0-24.983-5.205-20.82-34.352C2391.701,722.828,2455.559,665.076,2455.559,665.076z"/>
	
		<line fill="none" stroke="#3294B6" stroke-width="56.229" stroke-linecap="round" stroke-miterlimit="10" x1="2599.208" y1="695.636" x2="2714.54" y2="820.239"/>
	<g>
		<polygon fill="#FDC88B" points="2726.459,850.247 2563.668,919.287 2551.804,893.798 2709.443,813.69 		"/>
	</g>
	<polygon fill="#FDC78B" points="2537.235,665.076 2466.224,709.549 2478.835,665.076 2478.835,595.658 2537.235,595.658 	"/>
	<polygon opacity="0.1" points="2512.107,595.201 2478.835,618.474 2478.835,595.201 	"/>
	<path fill="#FDC78B" d="M2484.478,595.658h71.513V483.987c0-27.905-22.622-50.527-50.527-50.527h-23.066
		c-27.417,0-49.643,22.226-49.643,49.643v60.832C2432.755,572.501,2455.912,595.658,2484.478,595.658z"/>
	<g>
		<path fill="#00233F" d="M2437.911,515.988L2437.911,515.988c-2.459-0.034-4.426-2.056-4.391-4.516l0.051-1.89
			c0.034-2.46,2.056-4.426,4.516-4.391l0,0c2.459,0.034,4.426,2.056,4.391,4.516l-0.051,1.89
			C2442.393,514.057,2440.371,516.023,2437.911,515.988z"/>
		<path fill="#00233F" d="M2481.664,515.988L2481.664,515.988c-2.46-0.034-4.426-2.056-4.391-4.516l0.051-1.89
			c0.034-2.46,2.056-4.426,4.516-4.391l0,0c2.46,0.034,4.426,2.056,4.391,4.516l-0.051,1.89
			C2486.146,514.057,2484.124,516.023,2481.664,515.988z"/>
	</g>
	<path fill="#00466C" d="M2508.895,401.264L2508.895,401.264c51.327,0,92.936,41.609,92.936,92.936v34.805v132.529
		c0,36.991-36.845,66.979-73.837,66.979l0,0V499.84c-31.928-5.571-72.47-21.715-101.407-48.578c0,0,6.168-10.517,13.126-19.102
		C2456.728,413.2,2481.414,401.264,2508.895,401.264z"/>
	<path fill="#FFFFFF" d="M2482.625,547.217c-2.049,9.205-10.251,16.092-20.073,16.092c-9.822,0-18.024-6.887-20.073-16.092H2482.625
		z"/>
	
		<path fill="none" stroke="#E09E5E" stroke-width="2.8114" stroke-linecap="round" stroke-linejoin="round" stroke-miterlimit="10" d="
		M2459.653,501.695c-1.618,7.573-4.888,14.788-9.514,20.997c-0.857,1.15-1.77,2.283-2.335,3.602
		c-0.565,1.318-0.742,2.883-0.104,4.167c1.028,2.068,3.681,2.675,5.99,2.718c2.705,0.05,5.417-0.347,7.995-1.17"/>
	<g>
		
			<path fill="none" stroke="#E26A3E" stroke-width="4.0214" stroke-linecap="round" stroke-linejoin="round" stroke-miterlimit="10" d="
			M2415.563,494.27h39.958c0,0,0.559,25.815-16.415,25.815c-14.434,0-22.391-11.643-25.932-19.992
			C2412.081,497.514,2413.406,494.27,2415.563,494.27z"/>
		
			<path fill="none" stroke="#E26A3E" stroke-width="2.8114" stroke-linecap="round" stroke-linejoin="round" stroke-miterlimit="10" d="
			M2465.551,495.928c-1.524-1.308-3.597-2.129-5.557-1.693c-1.333,0.297-2.503,1.154-3.321,2.247"/>
		
			<path fill="none" stroke="#E26A3E" stroke-width="4.4983" stroke-linecap="round" stroke-linejoin="round" stroke-miterlimit="10" d="
			M2516.224,494.27h-49.997c0,0-0.699,25.815,20.539,25.815c18.06,0,28.016-11.643,32.447-19.992
			C2520.581,497.514,2518.923,494.27,2516.224,494.27z"/>
	</g>
	
		<line fill="none" stroke="#00233F" stroke-width="4.7371" stroke-linecap="round" stroke-linejoin="round" stroke-miterlimit="10" x1="2455.524" y1="478.125" x2="2429.189" y2="483.3"/>
	
		<line fill="none" stroke="#00233F" stroke-width="4.7371" stroke-linecap="round" stroke-linejoin="round" stroke-miterlimit="10" x1="2478.573" y1="478.125" x2="2514.766" y2="483.3"/>
	<rect x="2410.439" y="888.343" fill="#002542" width="125.163" height="18.199"/>
	<g>
		<g>
			<polygon fill="#FDC78B" points="2523.148,1584.34 2493.279,1279.262 2548.637,1273.651 2541.087,1577.83 			"/>
		</g>
		<g>
			<polygon fill="#FDC78B" points="2495.452,1577.83 2487.655,1276.883 2433.095,1280.11 2477.513,1584.34 			"/>
		</g>
		<polygon fill="#FDC78B" points="2435.815,1636.561 2477.322,1584.34 2495.261,1577.83 2498.518,1584.773 2457.779,1641.292 
			2432.864,1638.992 		"/>
		<path fill="#003263" d="M2499.47,1584.65l3.844,7.417c2.378,4.589,1.744,10.16-1.605,14.097l-3.9,4.585l-4.33,31.674l-4.101-0.057
			c0,0-1.75-29.169-1.969-28.956c-0.122,0.118-21.918,12.709-24.381,36.05l-49.938,5.221l0.052-3.669l22.674-14.45
			c0,0,18.456,0.003,20.707-1.946c3.572-3.092,26.245-43.363,29.033-44.693C2492.255,1586.724,2499.217,1584.683,2499.47,1584.65z"
			/>
		<polygon fill="#FDC78B" points="2481.641,1636.561 2523.148,1584.34 2541.087,1577.83 2544.343,1584.773 2503.604,1641.292 
			2478.689,1638.992 		"/>
		<path fill="#003263" d="M2545.295,1584.65l3.844,7.417c2.378,4.589,1.744,10.16-1.605,14.097l-3.901,4.585l-4.33,31.674
			l-4.101-0.057c0,0-1.75-29.169-1.969-28.956c-0.122,0.118-21.918,12.709-24.381,36.05l-49.938,5.221l0.052-3.669l22.674-14.45
			c0,0,18.456,0.003,20.707-1.946c3.572-3.092,26.245-43.363,29.033-44.693C2538.081,1586.724,2545.043,1584.683,2545.295,1584.65z"
			/>
		<g>
			<g>
				<path fill="#00466C" d="M2411.263,906.542l-22.525,65.839c-7.819,22.855-9.691,47.324-5.44,71.103l44.002,246.14l127.377,1.785
					l32.64-235.316c4.131-29.783-1.278-60.108-15.451-86.626l-38.119-62.925H2411.263z"/>
			</g>
		</g>
	</g>
	<g>
		<path fill="#FDC88B" d="M2553.423,894.109c-6.927-5.486-12.108-9.59-19.034-15.076c-2.156-0.137-28.257-1.655-35.202-2.059
			c-0.899-0.052-1.628,0.701-1.56,1.599l0.204,2.699c0.054,0.718,0.614,1.294,1.33,1.368l3.967,0.413l-4.743,0.774
			c-0.773,0.126-1.284,0.865-1.117,1.63c0.507,2.325,1.555,6.958,2.346,9.255c0.414,1.202,0.854,2.448,1.749,3.352
			c1.034,1.043,2.518,1.476,3.939,1.846c9.281,2.418,20.203,5.328,28.055,8.304c1.922,6.616,2.747,9.091,8.487,12.903
			c5.323,3.535,17.511,2.886,21.823-1.829"/>
	</g>
	<path fill="#1D667E" d="M2741.775,803.172l-69.509,13.84l6.161,12.41l50.275,22.772
		C2728.702,852.194,2750.126,829.68,2741.775,803.172z"/>
	<g>
		<g>
			<path fill="#1D667E" d="M2449.073,781.083c7.005,0.458,13.926,1.368,20.738,3.095c5.375,1.362,10.623,3.145,15.911,4.8
				c9.675,3.028,19.213,4.822,29.131,1.714c7.138-2.237,13.511-6.29,18.995-11.326c0.429-0.394-0.207-1.022-0.637-0.637
				c-6.622,5.931-14.539,10.572-23.355,12.224c-6.23,1.167-12.465,0.381-18.545-1.201c-6.266-1.63-12.36-3.854-18.617-5.519
				c-7.709-2.051-15.627-3.384-23.621-3.315C2448.967,780.92,2448.968,781.077,2449.073,781.083L2449.073,781.083z"/>
		</g>
	</g>
</g>
<ellipse transform="matrix(0.3226 -0.9465 0.9465 0.3226 -403.2524 1450.0734)" fill="#FFFFFF" cx="811.471" cy="1006.77" rx="14.722" ry="4.243"/>
</svg>
